<?xml version="1.0" encoding="UTF-8"?>
<!DOCTYPE svg PUBLIC "-//W3C//DTD SVG 1.1//EN" "http://www.w3.org/Graphics/SVG/1.1/DTD/svg11.dtd">
<svg version="1.2" width="31.83mm" height="24.87mm" viewBox="0 0 3183 2487" preserveAspectRatio="xMidYMid" fill-rule="evenodd" stroke-width="28.222" stroke-linejoin="round" xmlns="http://www.w3.org/2000/svg" xmlns:ooo="http://xml.openoffice.org/svg/export" xmlns:xlink="http://www.w3.org/1999/xlink" xmlns:presentation="http://sun.com/xmlns/staroffice/presentation" xmlns:smil="http://www.w3.org/2001/SMIL20/" xmlns:anim="urn:oasis:names:tc:opendocument:xmlns:animation:1.0" xml:space="preserve">
 <defs class="ClipPathGroup">
  <clipPath id="presentation_clip_path" clipPathUnits="userSpaceOnUse">
   <rect x="0" y="0" width="3183" height="2487"/>
  </clipPath>
  <clipPath id="presentation_clip_path_shrink" clipPathUnits="userSpaceOnUse">
   <rect x="3" y="2" width="3177" height="2483"/>
  </clipPath>
 </defs>
 <defs class="TextShapeIndex">
  <g ooo:slide="id1" ooo:id-list="id3"/>
 </defs>
 <defs class="EmbeddedBulletChars">
  <g id="bullet-char-template-57356" transform="scale(0.00048828125,-0.00048828125)">
   <path d="M 580,1141 L 1163,571 580,0 -4,571 580,1141 Z"/>
  </g>
  <g id="bullet-char-template-57354" transform="scale(0.00048828125,-0.00048828125)">
   <path d="M 8,1128 L 1137,1128 1137,0 8,0 8,1128 Z"/>
  </g>
  <g id="bullet-char-template-10146" transform="scale(0.00048828125,-0.00048828125)">
   <path d="M 174,0 L 602,739 174,1481 1456,739 174,0 Z M 1358,739 L 309,1346 659,739 1358,739 Z"/>
  </g>
  <g id="bullet-char-template-10132" transform="scale(0.00048828125,-0.00048828125)">
   <path d="M 2015,739 L 1276,0 717,0 1260,543 174,543 174,936 1260,936 717,1481 1274,1481 2015,739 Z"/>
  </g>
  <g id="bullet-char-template-10007" transform="scale(0.00048828125,-0.00048828125)">
   <path d="M 0,-2 C -7,14 -16,27 -25,37 L 356,567 C 262,823 215,952 215,954 215,979 228,992 255,992 264,992 276,990 289,987 310,991 331,999 354,1012 L 381,999 492,748 772,1049 836,1024 860,1049 C 881,1039 901,1025 922,1006 886,937 835,863 770,784 769,783 710,716 594,584 L 774,223 C 774,196 753,168 711,139 L 727,119 C 717,90 699,76 672,76 641,76 570,178 457,381 L 164,-76 C 142,-110 111,-127 72,-127 30,-127 9,-110 8,-76 1,-67 -2,-52 -2,-32 -2,-23 -1,-13 0,-2 Z"/>
  </g>
  <g id="bullet-char-template-10004" transform="scale(0.00048828125,-0.00048828125)">
   <path d="M 285,-33 C 182,-33 111,30 74,156 52,228 41,333 41,471 41,549 55,616 82,672 116,743 169,778 240,778 293,778 328,747 346,684 L 369,508 C 377,444 397,411 428,410 L 1163,1116 C 1174,1127 1196,1133 1229,1133 1271,1133 1292,1118 1292,1087 L 1292,965 C 1292,929 1282,901 1262,881 L 442,47 C 390,-6 338,-33 285,-33 Z"/>
  </g>
  <g id="bullet-char-template-9679" transform="scale(0.00048828125,-0.00048828125)">
   <path d="M 813,0 C 632,0 489,54 383,161 276,268 223,411 223,592 223,773 276,916 383,1023 489,1130 632,1184 813,1184 992,1184 1136,1130 1245,1023 1353,916 1407,772 1407,592 1407,412 1353,268 1245,161 1136,54 992,0 813,0 Z"/>
  </g>
  <g id="bullet-char-template-8226" transform="scale(0.00048828125,-0.00048828125)">
   <path d="M 346,457 C 273,457 209,483 155,535 101,586 74,649 74,723 74,796 101,859 155,911 209,963 273,989 346,989 419,989 480,963 531,910 582,859 608,796 608,723 608,648 583,586 532,535 482,483 420,457 346,457 Z"/>
  </g>
  <g id="bullet-char-template-8211" transform="scale(0.00048828125,-0.00048828125)">
   <path d="M -4,459 L 1135,459 1135,606 -4,606 -4,459 Z"/>
  </g>
  <g id="bullet-char-template-61548" transform="scale(0.00048828125,-0.00048828125)">
   <path d="M 173,740 C 173,903 231,1043 346,1159 462,1274 601,1332 765,1332 928,1332 1067,1274 1183,1159 1299,1043 1357,903 1357,740 1357,577 1299,437 1183,322 1067,206 928,148 765,148 601,148 462,206 346,322 231,437 173,577 173,740 Z"/>
  </g>
 </defs>
 <g>
  <g id="id2" class="Master_Slide">
   <g id="bg-id2" class="Background"/>
   <g id="bo-id2" class="BackgroundObjects"/>
  </g>
 </g>
 <g class="SlideGroup">
  <g>
   <g id="container-id1">
    <g id="id1" class="Slide" clip-path="url(#presentation_clip_path)">
     <g class="Page">
      <g class="Graphic">
       <g id="id3">
        <rect class="BoundingBox" stroke="none" fill="none" x="300" y="-27" width="2515" height="2515"/>
        <path fill="rgb(224,135,9)" stroke="none" d="M 2716,1230 C 2716,1295 2584,1347 2573,1409 2562,1473 2668,1567 2646,1626 2624,1687 2482,1691 2450,1746 2418,1801 2486,1926 2445,1975 2404,2024 2269,1979 2220,2020 2171,2061 2192,2202 2136,2234 2082,2265 1970,2178 1910,2199 1850,2221 1822,2360 1758,2371 1696,2382 1622,2261 1557,2261 1492,2261 1417,2382 1356,2371 1292,2360 1263,2221 1204,2199 1144,2178 1032,2265 977,2234 922,2202 943,2061 894,2020 845,1979 710,2024 669,1975 628,1926 695,1801 663,1746 632,1691 490,1687 468,1626 446,1567 552,1473 541,1409 530,1347 398,1295 398,1230 398,1165 530,1112 541,1051 552,987 446,893 468,833 490,773 632,769 663,714 695,659 628,534 669,485 710,436 845,481 894,440 943,399 922,258 977,226 1032,194 1144,282 1204,260 1263,239 1292,100 1356,88 1417,78 1492,198 1557,198 1622,198 1696,78 1758,88 1822,100 1851,239 1910,260 1970,282 2082,194 2136,226 2192,258 2171,399 2220,440 2269,481 2404,436 2445,485 2486,534 2418,659 2450,714 2482,769 2624,773 2646,833 2668,893 2562,987 2573,1051 2584,1112 2716,1165 2716,1230 L 2716,1230 Z"/>
        <path fill="rgb(255,255,255)" stroke="none" d="M 2533,1230 C 2533,1769 2096,2206 1557,2206 1017,2206 580,1769 580,1230 580,691 1017,253 1557,253 2096,253 2533,691 2533,1230 L 2533,1230 Z"/>
        <path fill="rgb(224,135,9)" stroke="none" d="M 2499,1230 C 2499,1750 2077,2172 1557,2172 1036,2172 614,1750 614,1230 614,709 1036,287 1557,287 2077,287 2499,709 2499,1230 L 2499,1230 Z"/>
        <path fill="rgb(255,255,255)" stroke="none" d="M 2452,1230 C 2452,1725 2051,2126 1557,2126 1062,2126 661,1725 661,1230 661,735 1062,334 1557,334 2051,334 2452,735 2452,1230 L 2452,1230 Z"/>
        <path fill="rgb(224,135,9)" stroke="none" d="M 1518,2051 L 1518,2051 1518,2051 C 1508,2051 1500,2040 1500,2030 L 1500,2030 C 1501,2019 1510,2010 1520,2011 L 1520,2011 C 1531,2011 1539,2021 1538,2032 L 1538,2032 C 1538,2042 1529,2051 1519,2051 L 1519,2051 C 1519,2051 1519,2051 1518,2051 L 1518,2051 Z M 1576,2031 C 1576,2021 1584,2011 1594,2011 L 1594,2011 C 1605,2010 1614,2019 1614,2030 L 1614,2030 C 1615,2041 1607,2051 1596,2051 L 1596,2051 C 1596,2051 1596,2051 1595,2051 L 1595,2051 C 1585,2051 1577,2042 1576,2031 L 1576,2031 Z M 1441,2041 C 1430,2039 1423,2030 1425,2019 L 1425,2019 C 1426,2009 1436,2002 1446,2003 L 1446,2003 C 1457,2005 1464,2014 1462,2025 L 1462,2025 C 1461,2034 1453,2041 1443,2041 L 1443,2041 C 1442,2041 1442,2041 1441,2041 L 1441,2041 Z M 1652,2025 C 1651,2014 1658,2005 1668,2003 L 1668,2003 C 1679,2002 1688,2009 1690,2019 L 1690,2019 C 1691,2030 1684,2039 1674,2041 L 1674,2041 C 1673,2041 1672,2041 1671,2041 L 1671,2041 C 1662,2041 1653,2034 1652,2025 L 1652,2025 Z M 1364,2026 L 1364,2026 1364,2026 C 1354,2024 1348,2014 1350,2003 L 1350,2003 C 1353,1993 1363,1987 1373,1989 L 1373,1989 C 1383,1992 1390,2002 1387,2012 L 1387,2012 C 1385,2021 1377,2027 1369,2027 L 1369,2027 C 1367,2027 1366,2027 1364,2026 L 1364,2026 Z M 1727,2012 C 1725,2002 1731,1992 1741,1989 L 1741,1989 C 1752,1986 1762,1993 1764,2003 L 1764,2003 C 1767,2013 1760,2024 1750,2026 L 1750,2026 C 1749,2026 1747,2027 1746,2027 L 1746,2027 C 1737,2027 1729,2021 1727,2012 L 1727,2012 Z M 1289,2005 C 1279,2001 1274,1990 1278,1980 L 1278,1980 C 1281,1970 1292,1965 1302,1969 L 1302,1969 C 1312,1972 1317,1983 1314,1993 L 1314,1993 C 1311,2001 1304,2006 1296,2006 L 1296,2006 C 1294,2006 1292,2005 1289,2005 L 1289,2005 Z M 1801,1992 C 1797,1982 1802,1971 1812,1968 L 1812,1968 C 1822,1964 1833,1970 1837,1980 L 1837,1980 C 1840,1990 1835,2001 1825,2004 L 1825,2004 1825,2004 1825,2004 C 1823,2005 1821,2005 1819,2005 L 1819,2005 C 1811,2005 1803,2000 1801,1992 L 1801,1992 Z M 1217,1976 C 1207,1971 1203,1960 1208,1950 L 1208,1950 C 1212,1941 1223,1937 1233,1941 L 1233,1941 C 1243,1945 1247,1957 1242,1966 L 1242,1966 C 1239,1973 1232,1977 1225,1977 L 1225,1977 C 1222,1977 1220,1977 1217,1976 L 1217,1976 Z M 1872,1966 C 1868,1956 1872,1945 1881,1940 L 1881,1940 C 1891,1936 1902,1940 1907,1950 L 1907,1950 C 1911,1959 1907,1971 1897,1975 L 1897,1975 C 1895,1976 1892,1977 1890,1977 L 1890,1977 C 1882,1977 1875,1973 1872,1966 L 1872,1966 Z M 1153,1940 C 1153,1940 1153,1940 1153,1940 L 1153,1940 C 1153,1935 1138,1923 1143,1914 L 1143,1914 C 1148,1905 1159,1902 1168,1907 L 1168,1907 C 1177,1912 1180,1924 1174,1933 L 1174,1933 C 1171,1939 1167,1942 1160,1942 L 1160,1942 C 1157,1942 1153,1942 1153,1940 L 1153,1940 Z M 1941,1932 C 1935,1923 1938,1912 1947,1906 L 1947,1906 C 1957,1901 1968,1904 1974,1913 L 1974,1913 C 1979,1922 1976,1934 1967,1939 L 1967,1939 C 1964,1941 1960,1942 1957,1942 L 1957,1942 C 1950,1942 1944,1938 1941,1932 L 1941,1932 Z M 1082,1898 L 1082,1898 1082,1898 C 1073,1892 1072,1880 1078,1871 L 1078,1871 C 1084,1863 1096,1861 1104,1867 L 1104,1867 C 1113,1873 1115,1885 1109,1893 L 1109,1893 C 1105,1899 1099,1901 1093,1901 L 1093,1901 C 1089,1901 1085,1900 1082,1898 L 1082,1898 Z M 2005,1893 C 1999,1884 2001,1872 2010,1866 L 2010,1866 C 2019,1860 2030,1862 2037,1870 L 2037,1870 C 2043,1879 2041,1891 2032,1897 L 2032,1897 C 2029,1899 2025,1901 2021,1901 L 2021,1901 C 2015,1901 2009,1898 2005,1893 L 2005,1893 Z M 1021,1850 C 1013,1843 1012,1831 1019,1823 L 1019,1823 C 1026,1815 1038,1814 1046,1821 L 1046,1821 C 1054,1828 1055,1840 1048,1848 L 1048,1848 C 1044,1852 1039,1854 1033,1854 L 1033,1854 C 1029,1854 1024,1853 1021,1850 L 1021,1850 Z M 2066,1847 C 2060,1839 2060,1827 2068,1820 L 2068,1820 C 2076,1813 2088,1814 2095,1822 L 2095,1822 C 2102,1830 2101,1842 2093,1849 L 2093,1849 C 2090,1852 2085,1853 2081,1853 L 2081,1853 C 2076,1853 2070,1851 2066,1847 L 2066,1847 Z M 964,1796 C 957,1788 957,1776 965,1769 L 965,1769 C 973,1762 985,1762 992,1769 L 992,1769 C 999,1777 999,1789 991,1797 L 991,1797 C 988,1800 983,1802 978,1802 L 978,1802 C 973,1802 968,1800 964,1796 L 964,1796 Z M 2123,1796 C 2115,1788 2115,1776 2122,1769 L 2122,1769 C 2129,1761 2141,1761 2149,1768 L 2149,1768 C 2157,1775 2157,1787 2150,1795 L 2150,1795 2150,1795 2150,1795 C 2146,1799 2141,1801 2136,1801 L 2136,1801 C 2131,1801 2126,1799 2123,1796 L 2123,1796 Z M 913,1737 C 907,1729 908,1717 916,1710 L 916,1710 C 925,1704 937,1705 943,1713 L 943,1713 C 950,1722 948,1734 940,1740 L 940,1740 C 937,1743 932,1744 928,1744 L 928,1744 C 923,1744 917,1742 913,1737 L 913,1737 Z M 2174,1738 C 2166,1731 2164,1722 2171,1709 L 2171,1709 C 2177,1709 2187,1701 2195,1708 L 2195,1708 C 2204,1714 2209,1728 2196,1736 L 2196,1736 C 2196,1736 2196,1736 2196,1736 L 2196,1736 C 2196,1741 2189,1743 2183,1743 L 2183,1743 C 2179,1743 2177,1740 2174,1738 L 2174,1738 Z M 868,1674 L 868,1674 868,1674 C 862,1665 864,1653 873,1647 L 873,1647 C 882,1642 899,1644 899,1653 L 899,1653 C 911,1662 902,1674 894,1679 L 894,1679 C 890,1682 887,1683 884,1683 L 884,1683 C 877,1683 871,1679 868,1674 L 868,1674 Z M 2220,1678 C 2211,1673 2208,1661 2214,1652 L 2214,1652 C 2220,1643 2231,1640 2240,1646 L 2240,1646 C 2249,1651 2252,1659 2246,1672 L 2246,1672 C 2246,1672 2246,1672 2246,1672 L 2246,1672 C 2242,1672 2236,1681 2230,1681 L 2230,1681 C 2226,1681 2223,1680 2220,1678 L 2220,1678 Z M 829,1606 C 824,1597 827,1585 837,1581 L 837,1581 C 846,1576 858,1579 863,1589 L 863,1589 C 868,1598 864,1610 854,1615 L 854,1615 C 852,1616 849,1617 846,1617 L 846,1617 C 839,1617 832,1613 829,1606 L 829,1606 Z M 2259,1613 C 2250,1609 2246,1597 2251,1588 L 2251,1588 C 2256,1578 2267,1575 2277,1579 L 2277,1579 C 2286,1584 2290,1596 2285,1605 L 2285,1605 2285,1605 2285,1605 C 2282,1612 2275,1615 2268,1615 L 2268,1615 C 2265,1615 2262,1615 2259,1613 L 2259,1613 Z M 796,1536 C 792,1526 797,1515 807,1511 L 807,1511 C 817,1507 828,1512 832,1521 L 832,1521 C 836,1531 831,1542 821,1546 L 821,1546 C 819,1547 816,1548 814,1548 L 814,1548 C 806,1548 799,1543 796,1536 L 796,1536 Z M 2293,1545 C 2283,1541 2278,1530 2282,1520 L 2282,1520 C 2286,1510 2297,1506 2307,1509 L 2307,1509 C 2317,1513 2321,1524 2317,1534 L 2317,1534 C 2314,1542 2307,1546 2300,1546 L 2300,1546 C 2297,1546 2295,1546 2293,1545 L 2293,1545 Z M 771,1462 L 771,1462 771,1462 C 768,1452 773,1441 783,1438 L 783,1438 C 794,1435 804,1441 807,1451 L 807,1451 C 810,1461 804,1472 794,1475 L 794,1475 C 793,1475 791,1476 789,1476 L 789,1476 C 781,1476 773,1470 771,1462 L 771,1462 Z M 2319,1474 C 2309,1470 2303,1460 2306,1450 L 2306,1450 C 2309,1440 2320,1434 2330,1437 L 2330,1437 C 2340,1440 2346,1450 2343,1461 L 2343,1461 C 2340,1469 2333,1474 2325,1474 L 2325,1474 C 2323,1474 2321,1474 2319,1474 L 2319,1474 Z M 752,1386 C 750,1376 757,1366 767,1364 L 767,1364 C 778,1362 788,1369 790,1379 L 790,1379 C 792,1389 785,1399 775,1401 L 775,1401 C 773,1402 772,1402 771,1402 L 771,1402 C 762,1402 754,1395 752,1386 L 752,1386 Z M 2339,1400 C 2328,1398 2322,1388 2324,1378 L 2324,1378 C 2326,1367 2336,1361 2346,1363 L 2346,1363 C 2356,1364 2363,1374 2361,1385 L 2361,1385 C 2359,1394 2351,1400 2342,1400 L 2342,1400 C 2341,1400 2340,1400 2339,1400 L 2339,1400 Z M 741,1309 C 740,1299 748,1289 758,1288 L 758,1288 C 769,1287 778,1295 779,1305 L 779,1305 C 780,1316 772,1325 762,1326 L 762,1326 C 761,1326 761,1326 760,1326 L 760,1326 C 750,1326 742,1319 741,1309 L 741,1309 Z M 2351,1325 C 2341,1324 2333,1315 2334,1304 L 2334,1304 C 2335,1294 2345,1286 2355,1287 L 2355,1287 C 2365,1288 2373,1297 2372,1308 L 2372,1308 C 2371,1317 2363,1325 2353,1325 L 2353,1325 C 2353,1325 2352,1325 2351,1325 L 2351,1325 Z M 737,1231 C 737,1221 746,1212 756,1212 L 756,1212 C 767,1212 775,1221 775,1231 L 775,1231 C 775,1242 767,1250 757,1250 L 757,1250 C 746,1250 737,1242 737,1231 L 737,1231 Z M 2340,1230 L 2340,1230 C 2340,1229 2340,1229 2340,1229 L 2340,1229 C 2340,1228 2340,1228 2340,1227 L 2340,1227 C 2340,1217 2350,1208 2361,1208 L 2361,1208 C 2371,1208 2381,1217 2381,1227 L 2381,1227 C 2381,1227 2381,1228 2381,1228 L 2381,1228 C 2381,1229 2381,1229 2381,1230 L 2381,1230 C 2381,1240 2371,1249 2361,1249 L 2361,1249 C 2350,1249 2340,1240 2340,1230 L 2340,1230 Z M 758,1174 C 748,1173 740,1164 741,1154 L 741,1154 741,1154 741,1154 C 742,1143 751,1135 762,1136 L 762,1136 C 772,1137 780,1147 779,1157 L 779,1157 C 778,1167 770,1174 760,1174 L 760,1174 C 759,1174 759,1174 758,1174 L 758,1174 Z M 2340,1153 L 2340,1153 C 2340,1143 2344,1133 2354,1132 L 2354,1132 C 2365,1131 2373,1139 2373,1149 L 2373,1149 C 2375,1160 2366,1169 2356,1170 L 2356,1170 C 2355,1170 2357,1170 2357,1170 L 2357,1170 C 2347,1170 2340,1163 2340,1153 L 2340,1153 Z M 767,1099 C 757,1097 750,1087 752,1076 L 752,1076 C 754,1066 764,1059 774,1061 L 774,1061 C 784,1063 791,1073 789,1084 L 789,1084 C 787,1093 779,1099 770,1099 L 770,1099 C 769,1099 768,1099 767,1099 L 767,1099 Z M 2323,1079 C 2321,1069 2328,1059 2338,1057 L 2338,1057 C 2349,1055 2359,1062 2361,1072 L 2361,1072 C 2363,1083 2356,1093 2346,1095 L 2346,1095 C 2344,1095 2343,1095 2342,1095 L 2342,1095 C 2333,1095 2325,1089 2323,1079 L 2323,1079 Z M 783,1024 C 773,1021 767,1011 770,1001 L 770,1001 C 773,991 783,985 793,988 L 793,988 C 804,991 809,1001 807,1011 L 807,1011 C 804,1020 796,1025 788,1025 L 788,1025 C 786,1025 785,1025 783,1024 L 783,1024 Z M 2305,1007 C 2303,997 2308,987 2318,984 L 2318,984 C 2328,981 2339,986 2342,996 L 2342,996 2342,996 2342,996 C 2345,1007 2339,1017 2329,1020 L 2329,1020 C 2327,1021 2325,1021 2324,1021 L 2324,1021 C 2316,1021 2308,1016 2305,1007 L 2305,1007 Z M 806,952 C 796,948 791,937 795,927 L 795,927 795,927 795,927 C 799,917 810,912 820,916 L 820,916 C 830,920 835,931 831,941 L 831,941 C 828,948 820,953 813,953 L 813,953 C 811,953 808,953 806,952 L 806,952 Z M 2281,937 L 2281,937 C 2277,927 2282,916 2291,912 L 2291,912 C 2301,908 2312,913 2316,923 L 2316,923 2316,923 2316,923 C 2320,933 2316,944 2306,948 L 2306,948 C 2303,949 2301,949 2299,949 L 2299,949 C 2291,949 2284,945 2281,937 L 2281,937 Z M 836,882 C 826,877 823,865 827,856 L 827,856 C 832,846 844,843 853,847 L 853,847 C 863,852 866,864 861,873 L 861,873 C 858,880 851,884 844,884 L 844,884 C 841,884 839,883 836,882 L 836,882 Z M 2250,869 L 2250,869 C 2245,857 2249,849 2258,844 L 2258,844 C 2267,839 2279,843 2284,852 L 2284,852 C 2289,861 2285,873 2276,878 L 2276,878 C 2273,879 2270,880 2267,880 L 2267,880 C 2260,880 2253,882 2250,869 L 2250,869 Z M 872,815 C 863,809 861,797 866,788 L 866,788 C 872,779 884,777 893,783 L 893,783 C 902,788 904,800 898,809 L 898,809 C 895,815 889,818 882,818 L 882,818 C 879,818 875,817 872,815 L 872,815 Z M 2212,806 C 2207,797 2209,785 2218,779 L 2218,779 C 2227,773 2239,776 2245,785 L 2245,785 C 2250,794 2248,805 2239,811 L 2239,811 C 2236,813 2232,814 2228,814 L 2228,814 C 2222,814 2216,811 2212,806 L 2212,806 Z M 915,752 C 906,745 905,733 911,725 L 911,725 C 918,716 930,715 938,721 L 938,721 C 947,728 948,740 941,748 L 941,748 C 938,753 932,756 927,756 L 927,756 C 922,756 918,754 915,752 L 915,752 Z M 2169,745 C 2163,737 2164,722 2172,716 L 2172,716 C 2180,709 2192,716 2199,716 L 2199,716 C 2199,716 2199,716 2199,716 L 2199,716 C 2206,716 2204,739 2196,746 L 2196,746 C 2192,748 2188,751 2184,751 L 2184,751 C 2178,751 2173,750 2169,745 L 2169,745 Z M 963,693 C 956,686 955,673 962,666 L 962,666 C 970,658 982,658 989,665 L 989,665 C 997,672 997,684 990,692 L 990,692 C 986,696 981,698 976,698 L 976,698 C 972,698 967,696 963,693 L 963,693 Z M 2120,689 C 2113,682 2113,670 2121,662 L 2121,662 C 2128,655 2141,655 2148,663 L 2148,663 C 2155,670 2155,682 2147,690 L 2147,690 C 2144,693 2139,695 2134,695 L 2134,695 C 2129,695 2124,693 2120,689 L 2120,689 Z M 1017,639 C 1010,631 1011,619 1019,612 L 1019,612 C 1027,605 1039,606 1046,614 L 1046,614 C 1053,622 1052,634 1044,641 L 1044,641 C 1040,644 1036,645 1031,645 L 1031,645 C 1026,645 1021,643 1017,639 L 1017,639 Z M 2066,638 C 2058,631 2058,619 2064,611 L 2064,611 C 2071,603 2083,602 2091,609 L 2091,609 C 2099,616 2100,628 2093,636 L 2093,636 C 2089,641 2084,643 2079,643 L 2079,643 C 2074,643 2070,641 2066,638 L 2066,638 Z M 1075,590 C 1069,582 1071,570 1080,564 L 1080,564 C 1088,557 1100,559 1106,568 L 1106,568 C 1113,577 1111,588 1102,595 L 1102,595 C 1099,597 1095,598 1091,598 L 1091,598 C 1085,598 1079,595 1075,590 L 1075,590 Z M 2008,592 C 1999,586 1997,574 2003,566 L 2003,566 C 2009,557 2021,555 2030,561 L 2030,561 C 2038,567 2041,579 2034,588 L 2034,588 C 2031,593 2025,596 2019,596 L 2019,596 C 2015,596 2011,595 2008,592 L 2008,592 Z M 1138,547 C 1133,538 1136,527 1145,521 L 1145,521 C 1154,516 1166,519 1171,528 L 1171,528 C 1177,537 1174,549 1165,554 L 1165,554 C 1161,556 1158,557 1155,557 L 1155,557 C 1148,557 1142,553 1138,547 L 1138,547 Z M 1945,552 C 1936,547 1933,535 1938,526 L 1938,526 C 1943,517 1955,514 1964,519 L 1964,519 C 1973,524 1976,536 1971,545 L 1971,545 C 1968,551 1961,555 1955,555 L 1955,555 C 1951,555 1948,554 1945,552 L 1945,552 Z M 1205,511 C 1201,501 1205,490 1214,485 L 1214,485 C 1224,481 1235,485 1240,495 L 1240,495 C 1244,504 1240,516 1230,520 L 1230,520 C 1228,521 1225,522 1222,522 L 1222,522 C 1215,522 1208,518 1205,511 L 1205,511 Z M 1879,518 C 1869,514 1865,503 1869,493 L 1869,493 C 1874,483 1885,479 1895,483 L 1895,483 C 1905,488 1909,499 1904,509 L 1904,509 C 1901,516 1894,520 1887,520 L 1887,520 C 1884,520 1882,519 1879,518 L 1879,518 Z M 1275,480 C 1272,470 1277,459 1287,456 L 1287,456 C 1297,453 1308,458 1311,468 L 1311,468 C 1315,478 1309,489 1299,492 L 1299,492 C 1297,493 1295,493 1293,493 L 1293,493 C 1285,493 1278,488 1275,480 L 1275,480 Z M 1810,491 C 1800,487 1795,477 1798,467 L 1798,467 C 1802,457 1812,451 1822,455 L 1822,455 1822,455 1822,455 C 1832,458 1838,469 1834,479 L 1834,479 C 1832,487 1824,492 1816,492 L 1816,492 C 1814,492 1812,492 1810,491 L 1810,491 Z M 1347,457 C 1345,447 1351,437 1361,434 L 1361,434 C 1372,432 1382,438 1385,448 L 1385,448 C 1387,458 1381,468 1371,471 L 1371,471 C 1369,471 1367,472 1366,472 L 1366,472 C 1357,472 1350,466 1347,457 L 1347,457 Z M 1739,470 L 1739,470 C 1728,468 1722,457 1725,447 L 1725,447 C 1727,437 1737,430 1747,433 L 1747,433 C 1758,435 1764,446 1762,456 L 1762,456 C 1760,465 1752,471 1743,471 L 1743,471 C 1742,471 1740,470 1739,470 L 1739,470 Z M 1422,441 C 1420,430 1428,421 1438,419 L 1438,419 C 1448,418 1458,425 1460,435 L 1460,435 C 1461,446 1454,455 1443,457 L 1443,457 C 1442,457 1442,457 1441,457 L 1441,457 C 1431,457 1423,450 1422,441 L 1422,441 Z M 1666,456 L 1666,456 C 1655,455 1648,445 1649,435 L 1649,435 C 1651,424 1660,417 1671,418 L 1671,418 C 1681,420 1689,430 1687,440 L 1687,440 C 1686,450 1678,457 1668,457 L 1668,457 C 1667,457 1667,456 1666,456 L 1666,456 Z M 1497,430 C 1497,419 1505,411 1515,411 L 1515,411 C 1526,410 1535,417 1535,428 L 1535,428 C 1536,438 1528,446 1517,446 L 1517,446 C 1517,446 1517,446 1517,446 L 1517,446 C 1506,446 1498,440 1497,430 L 1497,430 Z M 1592,446 C 1581,446 1573,439 1573,428 L 1573,428 C 1574,417 1583,410 1593,411 L 1593,411 C 1604,411 1612,419 1612,429 L 1612,429 C 1611,439 1603,446 1592,446 L 1592,446 C 1592,446 1592,446 1592,446 L 1592,446 Z"/>
        <path fill="rgb(224,135,9)" stroke="none" d="M 2269,1230 C 2269,1623 1950,1942 1557,1942 1163,1942 845,1623 845,1230 845,837 1163,518 1557,518 1950,518 2269,837 2269,1230 L 2269,1230 Z"/>
        <path fill="rgb(255,255,255)" stroke="none" d="M 1319,913 C 1319,915 1301,944 1264,1001 1235,1046 1214,1080 1203,1101 1192,1123 1183,1145 1178,1167 1172,1165 1167,1165 1163,1165 1158,1165 1149,1166 1136,1168 1147,1135 1181,1086 1237,1018 1272,976 1294,947 1306,929 1264,979 1221,1020 1179,1052 1152,1073 1135,1083 1130,1083 1129,1083 1128,1083 1128,1082 1128,1081 1129,1079 1131,1079 1172,1060 1231,1007 1310,921 L 1313,917 C 1316,914 1318,912 1318,912 1319,912 1319,913 1319,913 L 1319,913 Z"/>
        <path fill="rgb(255,255,255)" stroke="none" d="M 1567,973 C 1567,1010 1548,1050 1511,1092 1466,1143 1425,1168 1386,1168 1367,1168 1351,1161 1339,1147 1326,1134 1320,1116 1320,1094 1320,1051 1347,1006 1400,961 1446,923 1483,904 1510,904 1528,904 1541,910 1551,923 1562,935 1567,952 1567,973 L 1567,973 Z M 1549,947 C 1549,920 1536,907 1511,907 1490,907 1466,919 1439,944 1413,967 1390,995 1372,1028 1352,1062 1343,1093 1343,1119 1343,1149 1357,1165 1386,1165 1421,1165 1457,1140 1493,1090 1510,1067 1524,1042 1534,1016 1544,990 1549,966 1549,947 L 1549,947 Z"/>
        <path fill="rgb(255,255,255)" stroke="none" d="M 1804,973 C 1804,1010 1786,1050 1749,1092 1704,1143 1662,1168 1624,1168 1604,1168 1588,1161 1576,1147 1564,1134 1557,1116 1557,1094 1557,1051 1584,1006 1637,961 1683,923 1720,904 1748,904 1765,904 1779,910 1789,923 1799,935 1804,952 1804,973 L 1804,973 Z M 1787,947 C 1787,920 1774,907 1748,907 1727,907 1703,919 1676,944 1650,967 1628,995 1609,1028 1590,1062 1580,1093 1580,1119 1580,1149 1594,1165 1623,1165 1659,1165 1694,1140 1730,1090 1747,1067 1761,1042 1771,1016 1781,990 1787,966 1787,947 L 1787,947 Z"/>
        <path fill="rgb(255,255,255)" stroke="none" d="M 2026,915 C 2026,916 2025,918 2024,919 1990,955 1943,1029 1880,1141 1874,1139 1868,1138 1862,1138 1861,1138 1857,1139 1848,1140 1898,1070 1949,1004 2002,940 L 2009,931 C 1998,942 1981,954 1958,967 1944,975 1932,986 1923,1000 1905,1025 1887,1038 1871,1038 1863,1038 1857,1035 1852,1030 1847,1025 1845,1019 1845,1011 1845,996 1854,980 1871,964 1889,947 1906,938 1921,938 1933,938 1939,945 1939,958 1939,967 1936,976 1929,988 1940,974 1954,962 1973,951 1993,940 2009,928 2021,916 2023,914 2024,914 2025,914 2025,914 2026,914 2026,915 L 2026,915 Z M 1933,955 C 1933,946 1930,942 1923,942 1912,942 1899,952 1883,972 1868,991 1860,1008 1860,1022 1860,1030 1864,1034 1871,1034 1882,1034 1895,1025 1910,1005 1925,986 1933,969 1933,955 L 1933,955 Z M 2033,1048 C 2033,1064 2025,1081 2009,1100 1993,1118 1978,1128 1964,1128 1957,1128 1951,1125 1946,1120 1941,1115 1939,1109 1939,1101 1939,1086 1948,1071 1965,1054 1983,1037 1999,1028 2015,1028 2027,1028 2033,1035 2033,1048 L 2033,1048 Z M 2027,1045 C 2027,1036 2023,1032 2017,1032 2006,1032 1993,1042 1977,1061 1962,1081 1954,1098 1954,1112 1954,1120 1957,1124 1964,1124 1976,1124 1989,1115 2004,1095 2019,1076 2027,1059 2027,1045 L 2027,1045 Z"/>
        <path fill="rgb(255,255,255)" stroke="none" d="M 1042,1450 C 1052,1467 1063,1479 1074,1487 1085,1494 1098,1499 1112,1500 L 1112,1505 C 1099,1504 1085,1502 1070,1497 1055,1492 1041,1485 1027,1477 1014,1468 1003,1459 993,1450 979,1444 968,1438 960,1432 948,1423 939,1411 933,1398 927,1384 923,1369 923,1350 923,1321 933,1297 952,1278 970,1259 993,1249 1020,1249 1045,1249 1067,1259 1086,1278 1095,1288 1102,1299 1107,1311 1111,1322 1114,1336 1114,1351 1114,1374 1107,1395 1094,1413 1081,1431 1063,1443 1042,1450 L 1042,1450 Z M 1018,1260 C 1008,1260 1000,1262 992,1266 984,1270 978,1276 972,1284 967,1291 963,1301 960,1312 958,1323 956,1336 956,1350 956,1364 958,1376 960,1387 963,1398 967,1408 972,1416 977,1424 984,1431 991,1435 999,1440 1008,1442 1018,1442 1028,1442 1037,1440 1045,1436 1052,1432 1059,1426 1064,1419 1070,1411 1074,1402 1077,1391 1079,1380 1081,1368 1081,1354 1081,1339 1079,1325 1076,1313 1073,1302 1069,1292 1063,1284 1058,1276 1051,1270 1044,1266 1036,1262 1027,1260 1018,1260 L 1018,1260 Z"/>
        <path fill="rgb(255,255,255)" stroke="none" d="M 1264,1253 L 1333,1253 1333,1259 1326,1259 C 1318,1259 1312,1262 1308,1268 1306,1271 1305,1278 1305,1289 L 1305,1368 C 1305,1387 1303,1402 1299,1413 1297,1420 1293,1426 1289,1431 1284,1436 1279,1440 1273,1443 1267,1446 1260,1448 1253,1450 1246,1451 1238,1452 1231,1452 1209,1452 1193,1448 1182,1441 1175,1436 1170,1432 1166,1426 1163,1421 1160,1416 1158,1410 1156,1403 1155,1397 1155,1389 1155,1382 1154,1373 1154,1364 L 1154,1288 C 1154,1282 1154,1277 1153,1273 1152,1269 1151,1266 1150,1264 1148,1262 1146,1261 1143,1260 1140,1259 1137,1259 1134,1259 L 1126,1259 1126,1253 1210,1253 1210,1259 1203,1259 C 1198,1259 1194,1259 1192,1261 1189,1262 1187,1264 1185,1266 1184,1269 1183,1272 1183,1275 1182,1279 1182,1283 1182,1288 L 1182,1372 C 1182,1377 1182,1382 1182,1386 1183,1391 1183,1396 1184,1400 1185,1404 1186,1408 1188,1412 1189,1416 1191,1420 1193,1423 1197,1428 1202,1432 1208,1435 1215,1438 1223,1440 1232,1440 1239,1440 1245,1439 1250,1438 1256,1436 1261,1434 1266,1431 1271,1429 1275,1426 1279,1422 1282,1418 1285,1415 1287,1410 1290,1401 1292,1387 1292,1366 L 1292,1288 C 1292,1276 1291,1268 1288,1265 1285,1261 1279,1259 1272,1259 L 1264,1259 1264,1253 1264,1253 Z"/>
        <path fill="rgb(255,255,255)" stroke="none" d="M 1470,1382 L 1395,1382 1382,1413 C 1379,1421 1377,1426 1377,1430 1377,1431 1377,1433 1378,1434 1379,1435 1380,1437 1381,1438 1383,1439 1385,1440 1388,1440 1391,1441 1395,1442 1400,1442 L 1400,1447 1339,1447 1339,1442 C 1347,1441 1352,1439 1354,1437 1357,1434 1359,1431 1362,1426 1365,1422 1367,1416 1370,1409 L 1439,1249 1444,1249 1511,1410 C 1514,1417 1517,1422 1519,1426 1521,1431 1524,1434 1526,1436 1529,1438 1531,1440 1534,1441 1537,1441 1540,1442 1545,1442 L 1545,1447 1468,1447 1468,1442 C 1472,1442 1475,1442 1478,1441 1480,1440 1482,1439 1484,1438 1485,1437 1486,1436 1487,1435 1487,1433 1488,1432 1488,1430 1488,1428 1487,1425 1486,1422 1485,1419 1484,1415 1482,1410 L 1470,1382 1470,1382 Z M 1466,1372 L 1433,1294 1400,1372 1466,1372 1466,1372 Z"/>
        <path fill="rgb(255,255,255)" stroke="none" d="M 1716,1394 L 1720,1395 1704,1447 1554,1447 1554,1442 1561,1442 C 1569,1442 1575,1439 1578,1434 1580,1431 1581,1424 1581,1413 L 1581,1288 C 1581,1276 1580,1268 1577,1265 1574,1261 1568,1259 1561,1259 L 1554,1259 1554,1253 1641,1253 1641,1259 C 1636,1259 1632,1259 1628,1259 1625,1260 1622,1261 1620,1262 1617,1263 1616,1264 1614,1265 1613,1266 1612,1268 1611,1269 1610,1272 1609,1279 1609,1291 L 1609,1413 C 1609,1416 1609,1419 1609,1422 1610,1424 1610,1426 1610,1427 1611,1429 1612,1430 1613,1431 1614,1432 1615,1433 1617,1434 1619,1435 1626,1435 1639,1435 L 1653,1435 C 1668,1435 1678,1434 1684,1432 1687,1431 1690,1429 1693,1428 1696,1426 1698,1423 1701,1420 1703,1417 1706,1414 1708,1409 1710,1405 1713,1400 1716,1394 L 1716,1394 Z"/>
        <path fill="rgb(255,255,255)" stroke="none" d="M 1817,1442 L 1817,1447 1734,1447 1734,1442 1741,1442 C 1749,1442 1755,1440 1758,1435 1760,1432 1762,1425 1762,1413 L 1762,1288 C 1762,1283 1762,1279 1761,1277 1761,1274 1761,1271 1760,1270 1760,1268 1759,1266 1758,1265 1757,1264 1756,1263 1754,1262 1750,1260 1745,1259 1741,1259 L 1734,1259 1734,1253 1817,1253 1817,1259 1810,1259 C 1802,1259 1796,1261 1793,1266 1790,1269 1789,1276 1789,1288 L 1789,1413 C 1789,1418 1789,1421 1789,1424 1790,1427 1790,1429 1790,1431 1791,1433 1792,1435 1793,1436 1794,1437 1795,1438 1797,1439 1801,1441 1805,1442 1810,1442 L 1817,1442 1817,1442 Z"/>
        <path fill="rgb(255,255,255)" stroke="none" d="M 1994,1299 L 1990,1299 C 1990,1293 1988,1288 1987,1283 1985,1279 1983,1276 1980,1273 1977,1270 1973,1269 1969,1267 1965,1266 1960,1266 1955,1266 L 1928,1266 1928,1414 C 1928,1426 1929,1433 1931,1436 1935,1440 1941,1442 1948,1442 L 1955,1442 1955,1447 1873,1447 1873,1442 1880,1442 C 1888,1442 1894,1440 1897,1435 1899,1432 1900,1425 1900,1414 L 1900,1266 1877,1266 C 1871,1266 1866,1266 1861,1267 1857,1268 1853,1269 1850,1272 1847,1274 1845,1278 1843,1282 1841,1286 1839,1292 1838,1299 L 1833,1299 1833,1253 1994,1253 1994,1299 1994,1299 Z"/>
        <path fill="rgb(255,255,255)" stroke="none" d="M 2210,1253 L 2210,1259 2207,1259 C 2205,1259 2204,1259 2202,1260 2200,1260 2198,1261 2196,1262 2194,1263 2191,1264 2189,1266 2187,1268 2185,1270 2183,1272 2181,1274 2179,1276 2176,1280 2174,1283 2171,1287 2168,1292 L 2121,1365 2121,1414 C 2121,1426 2123,1433 2126,1436 2129,1440 2135,1442 2143,1442 L 2149,1442 2149,1447 2067,1447 2067,1442 2073,1442 C 2082,1442 2087,1440 2091,1435 2093,1432 2094,1425 2094,1414 L 2094,1368 2041,1287 C 2038,1282 2035,1278 2033,1275 2031,1272 2029,1270 2028,1269 2027,1268 2026,1267 2025,1266 2024,1265 2022,1264 2020,1263 2018,1262 2016,1261 2013,1260 2011,1259 2008,1259 2006,1259 L 2006,1253 2089,1253 2089,1259 2085,1259 C 2082,1259 2080,1259 2078,1259 2076,1260 2074,1261 2072,1262 2071,1263 2069,1264 2068,1266 2067,1267 2066,1269 2066,1271 2066,1275 2069,1281 2075,1290 L 2116,1352 2154,1293 C 2159,1284 2162,1277 2162,1273 2162,1271 2162,1269 2161,1267 2160,1265 2159,1264 2158,1263 2156,1261 2154,1260 2152,1260 2150,1259 2146,1259 2143,1259 L 2143,1253 2210,1253 2210,1253 Z"/>
       </g>
      </g>
     </g>
    </g>
   </g>
  </g>
 </g>
</svg>