<?xml version="1.0" encoding="UTF-8"?>
<!DOCTYPE svg PUBLIC "-//W3C//DTD SVG 1.1//EN" "http://www.w3.org/Graphics/SVG/1.1/DTD/svg11.dtd">
<svg version="1.2" width="61.66mm" height="39.18mm" viewBox="0 0 6166 3918" preserveAspectRatio="xMidYMid" fill-rule="evenodd" stroke-width="28.222" stroke-linejoin="round" xmlns="http://www.w3.org/2000/svg" xmlns:ooo="http://xml.openoffice.org/svg/export" xmlns:xlink="http://www.w3.org/1999/xlink" xmlns:presentation="http://sun.com/xmlns/staroffice/presentation" xmlns:smil="http://www.w3.org/2001/SMIL20/" xmlns:anim="urn:oasis:names:tc:opendocument:xmlns:animation:1.0" xml:space="preserve">
 <defs class="ClipPathGroup">
  <clipPath id="presentation_clip_path" clipPathUnits="userSpaceOnUse">
   <rect x="0" y="0" width="6166" height="3918"/>
  </clipPath>
  <clipPath id="presentation_clip_path_shrink" clipPathUnits="userSpaceOnUse">
   <rect x="6" y="3" width="6154" height="3911"/>
  </clipPath>
 </defs>
 <defs class="TextShapeIndex">
  <g ooo:slide="id1" ooo:id-list="id3 id4"/>
 </defs>
 <defs class="EmbeddedBulletChars">
  <g id="bullet-char-template-57356" transform="scale(0.00048828125,-0.00048828125)">
   <path d="M 580,1141 L 1163,571 580,0 -4,571 580,1141 Z"/>
  </g>
  <g id="bullet-char-template-57354" transform="scale(0.00048828125,-0.00048828125)">
   <path d="M 8,1128 L 1137,1128 1137,0 8,0 8,1128 Z"/>
  </g>
  <g id="bullet-char-template-10146" transform="scale(0.00048828125,-0.00048828125)">
   <path d="M 174,0 L 602,739 174,1481 1456,739 174,0 Z M 1358,739 L 309,1346 659,739 1358,739 Z"/>
  </g>
  <g id="bullet-char-template-10132" transform="scale(0.00048828125,-0.00048828125)">
   <path d="M 2015,739 L 1276,0 717,0 1260,543 174,543 174,936 1260,936 717,1481 1274,1481 2015,739 Z"/>
  </g>
  <g id="bullet-char-template-10007" transform="scale(0.00048828125,-0.00048828125)">
   <path d="M 0,-2 C -7,14 -16,27 -25,37 L 356,567 C 262,823 215,952 215,954 215,979 228,992 255,992 264,992 276,990 289,987 310,991 331,999 354,1012 L 381,999 492,748 772,1049 836,1024 860,1049 C 881,1039 901,1025 922,1006 886,937 835,863 770,784 769,783 710,716 594,584 L 774,223 C 774,196 753,168 711,139 L 727,119 C 717,90 699,76 672,76 641,76 570,178 457,381 L 164,-76 C 142,-110 111,-127 72,-127 30,-127 9,-110 8,-76 1,-67 -2,-52 -2,-32 -2,-23 -1,-13 0,-2 Z"/>
  </g>
  <g id="bullet-char-template-10004" transform="scale(0.00048828125,-0.00048828125)">
   <path d="M 285,-33 C 182,-33 111,30 74,156 52,228 41,333 41,471 41,549 55,616 82,672 116,743 169,778 240,778 293,778 328,747 346,684 L 369,508 C 377,444 397,411 428,410 L 1163,1116 C 1174,1127 1196,1133 1229,1133 1271,1133 1292,1118 1292,1087 L 1292,965 C 1292,929 1282,901 1262,881 L 442,47 C 390,-6 338,-33 285,-33 Z"/>
  </g>
  <g id="bullet-char-template-9679" transform="scale(0.00048828125,-0.00048828125)">
   <path d="M 813,0 C 632,0 489,54 383,161 276,268 223,411 223,592 223,773 276,916 383,1023 489,1130 632,1184 813,1184 992,1184 1136,1130 1245,1023 1353,916 1407,772 1407,592 1407,412 1353,268 1245,161 1136,54 992,0 813,0 Z"/>
  </g>
  <g id="bullet-char-template-8226" transform="scale(0.00048828125,-0.00048828125)">
   <path d="M 346,457 C 273,457 209,483 155,535 101,586 74,649 74,723 74,796 101,859 155,911 209,963 273,989 346,989 419,989 480,963 531,910 582,859 608,796 608,723 608,648 583,586 532,535 482,483 420,457 346,457 Z"/>
  </g>
  <g id="bullet-char-template-8211" transform="scale(0.00048828125,-0.00048828125)">
   <path d="M -4,459 L 1135,459 1135,606 -4,606 -4,459 Z"/>
  </g>
  <g id="bullet-char-template-61548" transform="scale(0.00048828125,-0.00048828125)">
   <path d="M 173,740 C 173,903 231,1043 346,1159 462,1274 601,1332 765,1332 928,1332 1067,1274 1183,1159 1299,1043 1357,903 1357,740 1357,577 1299,437 1183,322 1067,206 928,148 765,148 601,148 462,206 346,322 231,437 173,577 173,740 Z"/>
  </g>
 </defs>
 <g>
  <g id="id2" class="Master_Slide">
   <g id="bg-id2" class="Background"/>
   <g id="bo-id2" class="BackgroundObjects"/>
  </g>
 </g>
 <g class="SlideGroup">
  <g>
   <g id="container-id1">
    <g id="id1" class="Slide" clip-path="url(#presentation_clip_path)">
     <g class="Page">
      <g class="Graphic">
       <g id="id3">
        <rect class="BoundingBox" stroke="none" fill="none" x="0" y="0" width="6166" height="3918"/>
        <defs>
         <clipPath id="clip_path_1" clipPathUnits="userSpaceOnUse">
          <path d="M 0,0 L 6165,0 6165,3917 0,3917 0,0 Z"/>
         </clipPath>
        </defs>
        <g clip-path="url(#clip_path_1)">
         <path fill="rgb(7,52,85)" stroke="none" d="M 4129,149 C 3255,2292 1334,2586 370,2856 328,2901 302,2965 288,3038 676,3009 1768,3043 2056,2938 2544,2760 3094,2467 3482,2121 3693,1932 4033,1570 4188,1351 4233,1288 4386,1091 4666,700 4704,647 4810,420 4665,207 4545,30 4249,-64 4129,149 L 4129,149 Z"/>
         <path fill="none" stroke="rgb(0,0,0)" stroke-width="53" stroke-linejoin="round" stroke-linecap="round" d="M 4129,149 C 3255,2292 1334,2586 370,2856 328,2901 302,2965 288,3038 676,3009 1768,3043 2056,2938 2544,2760 3094,2467 3482,2121 3693,1932 4033,1570 4188,1351 4233,1288 4386,1091 4666,700 4704,647 4810,420 4665,207 4545,30 4249,-64 4129,149 L 4129,149 Z"/>
         <path fill="rgb(7,52,85)" stroke="none" d="M 5546,253 C 5450,228 5022,451 4512,356 4451,345 4197,457 4116,684 3959,1145 3722,1665 3375,1987 2987,2334 2544,2640 2056,2818 1768,2923 676,3009 288,3038 248,3249 310,3534 378,3649 1231,3916 3482,3781 4831,3487 5263,3413 5661,3300 5953,3197 6048,2672 5981,2129 5807,1676 5522,932 5570,866 5546,253 L 5546,253 Z"/>
         <path fill="none" stroke="rgb(0,0,0)" stroke-width="53" stroke-linejoin="round" stroke-linecap="round" d="M 5546,253 C 5450,228 5022,451 4512,356 4451,345 4197,457 4116,684 3959,1145 3722,1665 3375,1987 2987,2334 2544,2640 2056,2818 1768,2923 676,3009 288,3038 248,3249 310,3534 378,3649 1231,3916 3482,3781 4831,3487 5263,3413 5661,3300 5953,3197 6048,2672 5981,2129 5807,1676 5522,932 5570,866 5546,253 L 5546,253 Z"/>
         <path fill="rgb(255,255,255)" stroke="none" d="M 3330,1319 C 3387,1330 3810,1656 3791,1683 3782,1775 3742,1820 3698,1859 3603,1755 3431,1645 3215,1494 3242,1431 3264,1366 3330,1319 L 3330,1319 Z"/>
         <path fill="none" stroke="rgb(0,0,0)" stroke-width="53" stroke-linejoin="miter" d="M 3330,1319 C 3387,1330 3810,1656 3791,1683 3782,1775 3742,1820 3698,1859 3603,1755 3431,1645 3215,1494 3242,1431 3264,1366 3330,1319 L 3330,1319 Z"/>
         <path fill="rgb(255,255,255)" stroke="none" d="M 3042,1638 C 3102,1673 3478,2083 3456,2097 3424,2157 3377,2227 3327,2234 3228,2103 3122,2005 2895,1777 2926,1737 2971,1646 3042,1638 L 3042,1638 Z"/>
         <path fill="none" stroke="rgb(0,0,0)" stroke-width="53" stroke-linejoin="miter" d="M 3042,1638 C 3102,1673 3478,2083 3456,2097 3424,2157 3377,2227 3327,2234 3228,2103 3122,2005 2895,1777 2926,1737 2971,1646 3042,1638 L 3042,1638 Z"/>
         <path fill="rgb(255,255,255)" stroke="none" d="M 1789,2385 C 1763,2495 1891,3023 1926,3007 1976,3039 2046,3022 2131,2965 2089,2833 1981,2612 2007,2302 1897,2273 1815,2313 1789,2385 L 1789,2385 Z"/>
         <path fill="none" stroke="rgb(0,0,0)" stroke-width="53" stroke-linejoin="miter" d="M 1789,2385 C 1763,2495 1891,3023 1926,3007 1976,3039 2046,3022 2131,2965 2089,2833 1981,2612 2007,2302 1897,2273 1815,2313 1789,2385 L 1789,2385 Z"/>
         <path fill="rgb(255,255,255)" stroke="none" d="M 2701,1931 C 2773,1971 3127,2450 3101,2456 3044,2553 2987,2578 2930,2587 2852,2461 2785,2281 2514,2062 2509,2017 2606,1901 2701,1931 L 2701,1931 Z"/>
         <path fill="none" stroke="rgb(0,0,0)" stroke-width="53" stroke-linejoin="miter" d="M 2701,1931 C 2773,1971 3127,2450 3101,2456 3044,2553 2987,2578 2930,2587 2852,2461 2785,2281 2514,2062 2509,2017 2606,1901 2701,1931 L 2701,1931 Z"/>
         <path fill="rgb(153,153,153)" stroke="none" d="M 3483,2839 C 3483,2864 3476,2889 3463,2910 3450,2932 3432,2949 3410,2962 3389,2974 3364,2980 3339,2980 3314,2979 3290,2972 3268,2960 3247,2947 3229,2929 3217,2907 3205,2885 3198,2860 3199,2835 3199,2810 3206,2786 3219,2764 3232,2743 3250,2725 3272,2713 3293,2701 3318,2695 3343,2695 3368,2695 3393,2702 3414,2715 3435,2728 3453,2746 3465,2768 3478,2790 3484,2814 3483,2839 L 3483,2839 Z"/>
         <path fill="none" stroke="rgb(0,0,0)" stroke-width="53" stroke-linejoin="round" stroke-linecap="round" d="M 3483,2839 C 3483,2864 3476,2889 3463,2910 3450,2932 3432,2949 3410,2962 3389,2974 3364,2980 3339,2980 3314,2979 3290,2972 3268,2960 3247,2947 3229,2929 3217,2907 3205,2885 3198,2860 3199,2835 3199,2810 3206,2786 3219,2764 3232,2743 3250,2725 3272,2713 3293,2701 3318,2695 3343,2695 3368,2695 3393,2702 3414,2715 3435,2728 3453,2746 3465,2768 3478,2790 3484,2814 3483,2839 Z"/>
         <path fill="rgb(0,0,0)" stroke="none" d="M 3397,2838 C 3397,2848 3394,2858 3389,2866 3384,2874 3377,2881 3368,2886 3360,2891 3350,2893 3340,2893 3330,2893 3321,2890 3313,2885 3304,2880 3297,2873 3292,2865 3288,2856 3285,2846 3285,2837 3285,2827 3288,2817 3293,2809 3298,2800 3305,2794 3314,2789 3322,2784 3332,2782 3342,2782 3352,2782 3361,2785 3370,2790 3378,2795 3385,2802 3390,2810 3394,2819 3397,2828 3397,2838 L 3397,2838 Z"/>
         <path fill="none" stroke="rgb(0,0,0)" stroke-width="53" stroke-linejoin="round" stroke-linecap="round" d="M 3397,2838 C 3397,2848 3394,2858 3389,2866 3384,2874 3377,2881 3368,2886 3360,2891 3350,2893 3340,2893 3330,2893 3321,2890 3313,2885 3304,2880 3297,2873 3292,2865 3288,2856 3285,2846 3285,2837 3285,2827 3288,2817 3293,2809 3298,2800 3305,2794 3314,2789 3322,2784 3332,2782 3342,2782 3352,2782 3361,2785 3370,2790 3378,2795 3385,2802 3390,2810 3394,2819 3397,2828 3397,2838 Z"/>
         <path fill="rgb(153,153,153)" stroke="none" d="M 4139,2781 C 4138,2806 4131,2831 4119,2852 4106,2874 4088,2891 4066,2904 4044,2916 4019,2922 3994,2922 3969,2921 3945,2914 3923,2902 3902,2889 3884,2871 3872,2849 3860,2827 3854,2802 3854,2777 3854,2752 3861,2728 3874,2706 3887,2685 3905,2667 3927,2655 3949,2643 3973,2637 3998,2637 4023,2637 4048,2644 4069,2657 4091,2670 4109,2688 4121,2710 4133,2732 4139,2756 4139,2781 L 4139,2781 Z"/>
         <path fill="none" stroke="rgb(0,0,0)" stroke-width="53" stroke-linejoin="round" stroke-linecap="round" d="M 4139,2781 C 4138,2806 4131,2831 4119,2852 4106,2874 4088,2891 4066,2904 4044,2916 4019,2922 3994,2922 3969,2921 3945,2914 3923,2902 3902,2889 3884,2871 3872,2849 3860,2827 3854,2802 3854,2777 3854,2752 3861,2728 3874,2706 3887,2685 3905,2667 3927,2655 3949,2643 3973,2637 3998,2637 4023,2637 4048,2644 4069,2657 4091,2670 4109,2688 4121,2710 4133,2732 4139,2756 4139,2781 Z"/>
         <path fill="rgb(0,0,0)" stroke="none" d="M 4052,2780 C 4052,2790 4049,2800 4044,2808 4039,2816 4032,2823 4024,2828 4015,2833 4005,2835 3996,2835 3986,2835 3976,2832 3968,2827 3959,2822 3953,2815 3948,2807 3943,2798 3941,2788 3941,2779 3941,2769 3944,2759 3949,2751 3954,2742 3961,2736 3969,2731 3978,2726 3987,2724 3997,2724 4007,2724 4017,2727 4025,2732 4033,2737 4040,2744 4045,2752 4050,2761 4052,2770 4052,2780 L 4052,2780 Z"/>
         <path fill="none" stroke="rgb(0,0,0)" stroke-width="53" stroke-linejoin="round" stroke-linecap="round" d="M 4052,2780 C 4052,2790 4049,2800 4044,2808 4039,2816 4032,2823 4024,2828 4015,2833 4005,2835 3996,2835 3986,2835 3976,2832 3968,2827 3959,2822 3953,2815 3948,2807 3943,2798 3941,2788 3941,2779 3941,2769 3944,2759 3949,2751 3954,2742 3961,2736 3969,2731 3978,2726 3987,2724 3997,2724 4007,2724 4017,2727 4025,2732 4033,2737 4040,2744 4045,2752 4050,2761 4052,2770 4052,2780 Z"/>
         <path fill="rgb(255,255,255)" stroke="none" d="M 1018,2631 C 1074,2912 1056,3309 949,3467 L 104,3179 C 90,3189 238,2684 374,2633 573,2557 1018,2631 1018,2631 L 1018,2631 Z"/>
         <path fill="none" stroke="rgb(0,0,0)" stroke-width="53" stroke-linejoin="miter" d="M 1018,2631 C 1074,2912 1056,3309 949,3467 L 104,3179 C 90,3189 238,2684 374,2633 573,2557 1018,2631 1018,2631 L 1018,2631 Z"/>
         <path fill="rgb(255,255,255)" stroke="none" d="M 6052,2875 C 4705,3160 1987,3614 142,3042 35,3080 -43,3379 120,3671 1371,3910 3959,4083 6126,3469 6160,3283 6122,3149 6052,2875 L 6052,2875 Z"/>
         <path fill="none" stroke="rgb(0,0,0)" stroke-width="53" stroke-linejoin="round" stroke-linecap="round" d="M 6052,2875 C 4705,3160 1987,3614 142,3042 35,3080 -43,3379 120,3671 1371,3910 3959,4083 6126,3469 6160,3283 6122,3149 6052,2875 L 6052,2875 Z"/>
         <path fill="rgb(255,255,255)" stroke="none" d="M 2171,2251 C 2201,2372 2468,2888 2492,2857 2546,2818 2600,2807 2653,2720 2502,2499 2456,2413 2343,2148 2264,2145 2200,2130 2171,2251 L 2171,2251 Z"/>
         <path fill="none" stroke="rgb(0,0,0)" stroke-width="53" stroke-linejoin="miter" d="M 2171,2251 C 2201,2372 2468,2888 2492,2857 2546,2818 2600,2807 2653,2720 2502,2499 2456,2413 2343,2148 2264,2145 2200,2130 2171,2251 L 2171,2251 Z"/>
         <path fill="rgb(0,0,0)" stroke="none" d="M 6124,3128 C 4706,3488 3047,3673 1545,3522 L 1534,3627 C 3201,3738 4572,3597 6137,3234 6135,3200 6130,3165 6124,3128 L 6124,3128 Z"/>
         <path fill="rgb(255,255,255)" stroke="none" d="M 1298,2525 C 1253,2614 1299,3108 1336,3100 1419,3164 1479,3115 1546,3095 1527,2950 1473,2735 1527,2487 1444,2461 1392,2465 1298,2525 L 1298,2525 Z"/>
         <path fill="none" stroke="rgb(0,0,0)" stroke-width="53" stroke-linejoin="miter" d="M 1298,2525 C 1253,2614 1299,3108 1336,3100 1419,3164 1479,3115 1546,3095 1527,2950 1473,2735 1527,2487 1444,2461 1392,2465 1298,2525 L 1298,2525 Z"/>
         <path fill="rgb(255,255,255)" stroke="none" d="M 4487,1871 C 4404,1720 4413,1526 4508,1381 4534,1341 4605,1271 4645,1244 4796,1145 4996,1141 5152,1234 5363,1359 5444,1627 5339,1849 5250,2037 5050,2144 4841,2117 4696,2099 4559,2004 4487,1871 Z"/>
         <path fill="none" stroke="rgb(0,0,0)" stroke-width="53" stroke-linejoin="miter" d="M 4841,2117 C 4696,2099 4559,2004 4487,1871 4404,1720 4413,1526 4508,1381 4534,1341 4605,1271 4645,1244 4796,1145 4996,1141 5152,1234 5363,1359 5444,1627 5339,1849 5250,2037 5050,2144 4841,2117 L 4841,2117 Z"/>
         <path fill="rgb(3,9,66)" stroke="none" d="M 4898,1217 L 4869,1218 4868,1218 4868,1218 4852,1220 4855,1246 4871,1245 4899,1243 4899,1243 4906,1243 4906,1217 4898,1217 4898,1217 4898,1217 Z M 4932,1244 L 4955,1246 4955,1246 4982,1250 4982,1250 4988,1224 4987,1224 4987,1224 4986,1224 4958,1219 4957,1219 4957,1219 4934,1217 4932,1244 Z M 4810,1227 L 4810,1227 4809,1228 4781,1235 4781,1235 4781,1235 4772,1238 4781,1263 4788,1261 4788,1261 4816,1253 4816,1253 4830,1250 4825,1224 4810,1227 Z M 5008,1256 L 5009,1256 5036,1264 5057,1272 5066,1247 5045,1239 5044,1239 5044,1239 5016,1230 5016,1230 5015,1230 5014,1230 5008,1256 Z M 4726,1256 L 4725,1257 4725,1257 4699,1270 4698,1270 4698,1270 4697,1271 4711,1294 4711,1293 4737,1280 4737,1280 4757,1272 4746,1248 4726,1256 Z M 5080,1282 L 5088,1285 5088,1285 5113,1299 5125,1307 5139,1284 5127,1277 5127,1276 5126,1276 5100,1262 5100,1262 5100,1262 5091,1258 5080,1282 Z M 4673,1286 L 4672,1286 4672,1286 4658,1297 4657,1297 4657,1297 4641,1310 4641,1310 4641,1311 4631,1319 4649,1339 4658,1331 4658,1330 4658,1330 4674,1318 4674,1317 4687,1308 4688,1307 4674,1285 4673,1286 Z M 5146,1321 L 5160,1332 5160,1332 5160,1332 5174,1344 5174,1344 5185,1354 5203,1335 5192,1325 5192,1324 5192,1324 5177,1312 5177,1311 5176,1311 5162,1300 5146,1321 Z M 4606,1343 L 4606,1343 4606,1343 4589,1360 4589,1360 4589,1360 4574,1377 4594,1395 4608,1378 4609,1378 4609,1378 4625,1362 4625,1361 4625,1361 4630,1357 4611,1338 4606,1343 Z M 5203,1372 L 5213,1384 5213,1384 5213,1384 5225,1398 5225,1399 5235,1412 5256,1397 5246,1382 5246,1382 5246,1382 5234,1367 5233,1367 5233,1367 5222,1354 5203,1372 Z M 4550,1408 L 4549,1409 4549,1409 4535,1433 4534,1434 4534,1434 4528,1445 4552,1457 4557,1446 4558,1446 4572,1423 4578,1414 4557,1398 4550,1408 Z M 5249,1433 L 5255,1444 5264,1460 5272,1476 5272,1476 5273,1479 5297,1468 5296,1466 5296,1465 5296,1465 5288,1448 5287,1448 5287,1448 5278,1431 5278,1431 5278,1431 5271,1420 5249,1433 Z M 4510,1486 L 4510,1486 4509,1486 4500,1513 4500,1513 4500,1514 4498,1521 4523,1528 4525,1522 4525,1521 4534,1496 4534,1496 4541,1480 4517,1470 4510,1486 Z M 5283,1502 L 5286,1510 5286,1510 5291,1527 5296,1545 5296,1545 5297,1551 5323,1545 5322,1539 5322,1538 5322,1538 5317,1520 5316,1520 5316,1520 5311,1502 5310,1501 5310,1501 5307,1493 5283,1502 Z M 4487,1569 L 4487,1569 4486,1570 4483,1597 4483,1598 4482,1598 4482,1602 4509,1604 4509,1600 4513,1574 4513,1574 4517,1553 4491,1548 4487,1569 Z M 5303,1577 L 5303,1580 5303,1581 5303,1581 5306,1598 5308,1617 5308,1627 5334,1626 5334,1615 5334,1615 5334,1615 5332,1596 5332,1596 5332,1595 5330,1577 5330,1576 5329,1576 5329,1572 5303,1577 Z M 4480,1654 L 4480,1655 4480,1655 4482,1683 4508,1681 4507,1655 4507,1654 4507,1629 4480,1629 4480,1654 Z M 5308,1653 L 5308,1672 5306,1690 5306,1690 5304,1704 5330,1708 5332,1693 5332,1693 5332,1693 5334,1674 5334,1674 5334,1673 5335,1654 5335,1654 5335,1654 5335,1653 5311,1653 5308,1653 5308,1653 Z M 4485,1710 L 4485,1712 4485,1712 4485,1712 4490,1740 4490,1740 4491,1741 4496,1763 4522,1757 4516,1734 4511,1708 4511,1708 4511,1707 4485,1710 Z M 5296,1745 L 5296,1745 5291,1763 5285,1779 5311,1787 5316,1771 5316,1771 5316,1771 5321,1752 5321,1752 5321,1751 5325,1735 5300,1729 5296,1745 Z M 4505,1789 L 4507,1795 4507,1795 4507,1796 4518,1821 4518,1822 4518,1822 4527,1839 4550,1828 4542,1811 4532,1786 4530,1781 4505,1789 Z M 5270,1816 L 5255,1845 5253,1848 5276,1862 5277,1859 5278,1858 5278,1858 5294,1828 5294,1828 5294,1828 5300,1813 5276,1802 5270,1816 Z M 4540,1863 L 4543,1869 4544,1869 4544,1870 4557,1890 4558,1890 4558,1891 4571,1908 4592,1892 4579,1875 4579,1875 4566,1855 4566,1855 4563,1850 4540,1863 Z M 5238,1872 L 5218,1898 5208,1910 5228,1927 5239,1915 5239,1914 5239,1914 5259,1888 5259,1887 5260,1887 5261,1884 5239,1870 5238,1872 Z M 4589,1929 L 4589,1929 4589,1930 4590,1930 4607,1948 4607,1948 4607,1948 4625,1965 4625,1965 4626,1965 4628,1967 4645,1947 4643,1945 4643,1945 4626,1929 4626,1929 4609,1912 4609,1912 4609,1912 4589,1929 Z M 5175,1943 L 5151,1963 5168,1983 5192,1963 5193,1963 5193,1963 5209,1947 5190,1928 5175,1943 Z M 4649,1984 L 4665,1996 4665,1996 4665,1996 4686,2010 4686,2010 4686,2010 4694,2015 4708,1992 4700,1987 4700,1987 4680,1974 4665,1963 4649,1984 Z M 5126,1981 L 5099,1997 5099,1997 5087,2003 5098,2026 5111,2020 5111,2020 5111,2020 5139,2003 5140,2003 5140,2003 5146,1999 5131,1977 5126,1981 Z M 4718,2028 L 4730,2033 4730,2033 4730,2034 4752,2043 4753,2043 4753,2043 4768,2049 4777,2024 4763,2019 4762,2019 4741,2010 4741,2010 4730,2004 4718,2028 Z M 5041,2022 L 5015,2030 5023,2056 5050,2047 5050,2047 5051,2047 5073,2038 5064,2013 5041,2022 Z M 4794,2057 L 4799,2059 4800,2059 4800,2059 4823,2064 4824,2064 4824,2064 4848,2068 4852,2042 4829,2038 4806,2033 4806,2033 4802,2032 4794,2057 Z M 4980,2038 L 4949,2043 4940,2044 4941,2070 4951,2069 4952,2069 4952,2069 4985,2064 4985,2064 4986,2064 4996,2062 4990,2036 4980,2038 Z M 4860,2069 L 4883,2071 4883,2071 4884,2071 4914,2072 4914,2045 4885,2045 4863,2043 4860,2069 Z"/>
         <path fill="rgb(3,9,66)" stroke="none" d="M 4912,1289 L 4925,1289 4925,1289 4949,1291 4949,1291 4963,1294 4967,1267 4952,1265 4952,1265 4951,1265 4926,1263 4925,1263 4925,1263 4913,1263 4912,1289 Z M 4873,1264 L 4873,1264 4872,1264 4847,1267 4846,1267 4846,1267 4831,1270 4836,1296 4851,1293 4851,1293 4875,1290 4887,1290 4885,1263 4873,1264 Z M 4988,1298 L 4997,1300 4997,1300 5021,1307 5037,1313 5046,1289 5030,1283 5030,1282 5029,1282 5005,1275 5004,1275 5004,1275 4994,1273 4988,1298 Z M 4795,1279 L 4795,1279 4794,1279 4770,1288 4769,1288 4769,1288 4753,1295 4763,1319 4779,1312 4779,1312 4803,1304 4803,1304 4811,1302 4805,1277 4795,1279 Z M 5060,1324 L 5067,1327 5067,1327 5090,1339 5104,1348 5104,1348 5104,1348 5120,1327 5119,1326 5119,1326 5118,1326 5103,1316 5103,1316 5103,1316 5080,1303 5079,1303 5079,1303 5071,1299 5060,1324 Z M 4721,1310 L 4721,1311 4720,1311 4698,1324 4698,1325 4697,1325 4685,1334 4684,1334 4684,1335 4681,1337 4698,1357 4700,1355 4701,1355 4712,1347 4733,1334 4734,1334 4740,1330 4728,1307 4721,1310 Z M 5125,1363 L 5131,1368 5131,1368 5131,1368 5144,1379 5156,1390 5163,1398 5182,1379 5175,1371 5174,1371 5174,1371 5162,1359 5161,1359 5161,1359 5148,1347 5148,1347 5147,1347 5142,1342 5125,1363 Z M 4639,1375 L 4639,1375 4638,1376 4623,1392 4642,1410 4658,1394 4658,1394 4679,1374 4661,1355 4639,1375 Z M 5180,1417 L 5188,1427 5207,1453 5209,1458 5232,1445 5230,1440 5229,1439 5229,1438 5210,1411 5209,1410 5209,1410 5200,1400 5180,1417 Z M 4598,1420 L 4598,1421 4597,1421 4588,1434 4588,1434 4588,1435 4575,1456 4575,1456 4574,1457 4573,1459 4597,1471 4598,1470 4610,1449 4618,1437 4619,1437 4625,1430 4604,1413 4598,1420 Z M 5223,1481 L 5223,1481 5236,1510 5242,1527 5267,1518 5261,1501 5261,1501 5261,1500 5247,1470 5246,1469 5246,1469 5246,1468 5223,1481 Z M 4553,1503 L 4553,1503 4552,1504 4544,1527 4544,1527 4544,1528 4542,1535 4568,1542 4569,1535 4569,1535 4577,1513 4577,1513 4585,1494 4561,1483 4553,1503 Z M 5250,1551 L 5255,1572 5260,1602 5286,1598 5281,1567 5281,1567 5281,1566 5275,1545 5250,1551 Z M 4532,1577 L 4532,1577 4532,1578 4528,1602 4528,1603 4528,1603 4527,1615 4554,1617 4555,1605 4558,1582 4561,1566 4535,1561 4532,1577 Z M 5262,1627 L 5262,1636 5262,1668 5261,1678 5287,1681 5288,1671 5288,1670 5288,1670 5289,1636 5289,1636 5289,1635 5288,1625 5262,1627 Z M 4526,1653 L 4526,1654 4526,1654 4528,1679 4528,1679 4528,1680 4530,1697 4556,1694 4554,1677 4554,1677 4553,1653 4553,1653 4553,1642 4526,1642 4526,1653 Z M 5255,1717 L 5255,1717 5255,1718 5251,1733 5251,1733 5251,1734 5247,1749 5247,1750 5247,1750 5246,1752 5271,1761 5272,1758 5272,1757 5272,1757 5277,1740 5277,1740 5277,1740 5281,1723 5281,1723 5281,1722 5284,1708 5258,1703 5255,1717 Z M 4534,1724 L 4535,1729 4535,1730 4536,1730 4542,1754 4542,1755 4542,1755 4549,1776 4574,1768 4567,1747 4561,1724 4560,1719 4534,1724 Z M 5235,1781 L 5228,1797 5228,1797 5215,1822 5215,1822 5215,1823 5221,1826 5237,1836 5237,1836 5238,1835 5238,1835 5252,1808 5252,1808 5252,1808 5259,1792 5260,1791 5260,1791 5261,1786 5237,1777 5235,1781 Z M 4580,1793 L 4559,1802 4560,1802 4560,1803 4560,1803 4571,1825 4571,1826 4572,1826 4583,1845 4583,1845 4583,1846 4586,1850 4608,1835 4605,1831 4605,1831 4595,1813 4595,1813 4584,1792 4584,1791 4584,1791 4580,1793 Z M 5200,1846 L 5183,1869 5169,1884 5189,1902 5203,1886 5203,1885 5204,1885 5221,1862 5221,1861 5222,1861 5223,1859 5201,1844 5200,1846 Z M 4602,1872 L 4609,1882 4609,1882 4609,1882 4623,1899 4624,1899 4624,1899 4638,1913 4657,1895 4643,1881 4643,1881 4630,1865 4629,1865 4623,1856 4602,1872 Z M 5144,1909 L 5123,1926 5112,1934 5127,1956 5138,1948 5139,1947 5139,1947 5161,1929 5162,1929 5162,1928 5170,1921 5151,1902 5144,1909 Z M 4658,1932 L 4673,1945 4673,1945 4673,1945 4691,1958 4691,1958 4691,1958 4702,1965 4716,1943 4707,1937 4689,1924 4675,1912 4658,1932 Z M 5076,1956 L 5052,1968 5045,1971 5055,1996 5062,1993 5062,1993 5063,1992 5089,1980 5089,1980 5090,1979 5104,1971 5091,1948 5076,1956 Z M 4725,1979 L 4729,1981 4729,1981 4729,1982 4749,1991 4749,1991 4749,1992 4769,2000 4769,2000 4770,2000 4775,2002 4784,1977 4779,1976 4779,1976 4760,1967 4760,1967 4742,1958 4742,1958 4738,1956 4725,1979 Z M 4999,1987 L 4972,1993 4974,2003 4976,2019 4976,2019 4977,2019 4977,2019 5006,2013 5006,2012 5007,2012 5029,2005 5021,1980 4999,1987 Z M 4801,2011 L 4811,2014 4811,2014 4812,2014 4832,2019 4833,2019 4833,2019 4854,2022 4856,2009 4855,2022 4868,2024 4870,1997 4858,1996 4838,1993 4818,1988 4808,1985 4801,2011 Z M 4944,1997 L 4916,1999 4895,1999 4895,2025 4916,2026 4917,2026 4917,2026 4946,2024 4947,2023 4947,2023 4950,2023 4946,1997 4944,1997 Z"/>
         <path fill="rgb(3,9,66)" stroke="none" d="M 4780,1837 C 4807,1752 4824,1698 4824,1695 4824,1693 4795,1671 4760,1646 L 4697,1600 4777,1599 4857,1597 4863,1578 C 4866,1567 4877,1532 4887,1500 L 4906,1442 4931,1518 4956,1593 5037,1595 5118,1597 5053,1644 C 5018,1670 4989,1692 4989,1693 4989,1694 5000,1728 5013,1769 5027,1809 5037,1843 5037,1843 5037,1844 5008,1824 4973,1799 4938,1774 4909,1753 4907,1753 4906,1753 4880,1771 4850,1793 4821,1815 4792,1836 4787,1840 L 4777,1846 4780,1837 Z"/>
         <path fill="rgb(170,0,0)" stroke="none" d="M 4595,1562 C 4594,1561 4593,1559 4593,1558 4592,1557 4592,1555 4593,1554 4593,1551 4594,1550 4596,1549 4598,1547 4601,1547 4605,1548 L 4619,1551 C 4623,1552 4626,1553 4627,1555 4628,1557 4629,1559 4628,1562 4628,1564 4627,1565 4625,1566 4624,1567 4621,1568 4618,1568 4615,1568 4613,1568 4612,1569 4609,1571 4607,1573 4604,1577 4602,1580 4600,1584 4600,1588 4598,1593 4599,1598 4600,1602 4601,1607 4604,1611 4608,1615 4612,1619 4617,1622 4624,1624 L 4634,1626 C 4642,1628 4649,1626 4656,1622 4662,1617 4667,1610 4669,1600 4670,1594 4671,1588 4670,1584 4669,1581 4668,1578 4666,1575 4665,1573 4664,1571 4663,1570 4663,1569 4663,1568 4663,1567 4664,1565 4665,1563 4667,1562 4669,1560 4671,1560 4673,1560 4676,1561 4678,1563 4680,1565 4683,1569 4685,1574 4686,1580 4687,1587 4687,1595 4685,1603 4683,1613 4679,1621 4674,1628 4669,1634 4663,1638 4655,1641 4647,1644 4639,1644 4631,1642 L 4620,1640 C 4611,1638 4604,1634 4598,1629 4591,1623 4587,1617 4584,1609 4582,1601 4581,1593 4583,1585 4584,1580 4586,1576 4588,1572 4590,1568 4592,1565 4595,1562 L 4595,1562 Z"/>
         <path fill="rgb(170,0,0)" stroke="none" d="M 4713,1451 C 4725,1460 4731,1471 4734,1484 4736,1498 4733,1509 4726,1519 4719,1528 4709,1534 4697,1536 4683,1538 4669,1535 4656,1525 4643,1515 4636,1503 4635,1488 4633,1476 4636,1465 4643,1456 4651,1446 4661,1441 4675,1439 4688,1438 4701,1442 4713,1451 L 4713,1451 Z M 4703,1464 C 4695,1458 4686,1455 4677,1456 4668,1457 4661,1460 4656,1466 4652,1473 4650,1480 4652,1489 4653,1498 4658,1506 4666,1512 4674,1518 4683,1520 4692,1520 4701,1519 4708,1515 4712,1509 4717,1503 4719,1495 4717,1486 4715,1477 4711,1470 4703,1464 L 4703,1464 Z"/>
         <path fill="rgb(170,0,0)" stroke="none" d="M 4749,1404 L 4773,1449 4778,1446 C 4782,1444 4785,1443 4787,1444 4789,1444 4791,1446 4792,1448 4793,1450 4793,1452 4793,1455 4792,1457 4790,1459 4786,1461 L 4767,1471 C 4763,1473 4760,1473 4758,1473 4756,1472 4754,1471 4753,1469 4752,1466 4752,1464 4752,1462 4753,1460 4755,1458 4758,1456 L 4728,1399 4725,1400 C 4722,1402 4719,1402 4717,1402 4714,1401 4713,1400 4712,1398 4710,1395 4710,1393 4711,1391 4712,1389 4714,1387 4718,1385 L 4735,1376 4804,1415 4780,1371 4775,1374 C 4771,1376 4768,1376 4766,1376 4764,1375 4762,1374 4761,1372 4760,1369 4760,1367 4761,1365 4761,1363 4763,1361 4767,1359 L 4786,1349 C 4790,1347 4793,1346 4795,1347 4797,1347 4799,1349 4800,1351 4801,1353 4802,1355 4801,1357 4800,1360 4798,1361 4795,1363 L 4833,1436 4819,1443 4749,1404 Z"/>
         <path fill="rgb(170,0,0)" stroke="none" d="M 4894,1403 L 4915,1344 4911,1344 C 4907,1345 4904,1344 4902,1343 4901,1341 4900,1339 4899,1337 4899,1334 4900,1332 4902,1330 4903,1329 4906,1328 4910,1328 L 4933,1327 C 4937,1326 4939,1327 4941,1328 4943,1330 4944,1332 4944,1334 4944,1337 4943,1340 4941,1342 4939,1343 4937,1343 4933,1343 L 4903,1427 4887,1428 4849,1348 C 4845,1348 4842,1347 4841,1347 4838,1345 4837,1343 4837,1340 4836,1337 4837,1335 4839,1334 4840,1332 4843,1331 4847,1331 L 4870,1330 C 4874,1330 4877,1330 4878,1332 4880,1333 4881,1335 4881,1337 4881,1340 4881,1342 4879,1344 4877,1345 4875,1346 4871,1346 L 4867,1347 4894,1403 Z"/>
         <path fill="rgb(170,0,0)" stroke="none" d="M 4992,1399 L 4983,1422 5023,1438 5026,1429 C 5028,1426 5029,1423 5031,1422 5033,1421 5036,1421 5038,1422 5040,1423 5042,1425 5043,1427 5043,1429 5043,1432 5042,1436 L 5032,1459 4959,1430 C 4955,1429 4953,1427 4952,1425 4951,1423 4951,1420 4952,1418 4953,1416 4954,1414 4956,1414 4959,1413 4962,1413 4965,1415 L 4968,1416 4992,1355 4990,1354 C 4986,1352 4984,1351 4982,1349 4982,1347 4981,1344 4982,1342 4983,1340 4985,1338 4987,1337 4989,1337 4992,1337 4996,1338 L 5065,1366 5056,1390 C 5054,1394 5053,1396 5051,1397 5049,1398 5046,1398 5044,1397 5042,1396 5040,1395 5039,1393 5039,1390 5039,1388 5040,1384 L 5044,1376 5008,1361 4999,1384 5012,1389 C 5014,1385 5015,1383 5016,1382 5019,1380 5022,1380 5025,1381 5027,1382 5028,1383 5029,1385 5030,1387 5030,1390 5028,1394 L 5021,1412 C 5020,1415 5018,1417 5017,1418 5014,1420 5012,1420 5009,1419 5006,1418 5004,1416 5004,1413 5004,1411 5004,1409 5006,1404 L 4992,1399 Z"/>
         <path fill="rgb(170,0,0)" stroke="none" d="M 5090,1461 L 5075,1476 5079,1480 C 5082,1483 5083,1486 5083,1488 5083,1490 5083,1492 5081,1494 5079,1496 5077,1496 5075,1496 5072,1496 5070,1494 5067,1492 L 5050,1473 C 5047,1470 5046,1468 5045,1465 5045,1463 5046,1461 5048,1459 5050,1458 5052,1457 5054,1457 5057,1457 5059,1459 5062,1462 L 5064,1464 5111,1419 5109,1417 C 5107,1414 5105,1411 5105,1409 5105,1407 5106,1405 5108,1403 5110,1401 5112,1401 5114,1401 5116,1401 5119,1403 5122,1405 L 5147,1433 C 5156,1442 5160,1450 5160,1459 5160,1468 5157,1475 5151,1481 5147,1484 5143,1486 5137,1487 5132,1488 5126,1487 5120,1485 5120,1490 5120,1495 5119,1501 5118,1505 5117,1511 5115,1519 5118,1522 5120,1524 5120,1526 5121,1528 5120,1531 5117,1533 5116,1535 5114,1535 5111,1535 5109,1535 5107,1534 5104,1531 L 5097,1524 C 5103,1500 5105,1483 5102,1473 L 5090,1461 Z M 5103,1450 L 5111,1459 C 5115,1463 5118,1466 5122,1467 5127,1470 5131,1471 5133,1471 5136,1470 5138,1470 5140,1468 5142,1466 5143,1463 5143,1458 5143,1454 5140,1450 5136,1445 L 5123,1431 5103,1450 Z"/>
         <path fill="rgb(170,0,0)" stroke="none" d="M 5206,1567 L 5144,1587 5147,1598 C 5149,1602 5149,1605 5148,1607 5147,1609 5145,1610 5143,1611 5141,1612 5138,1612 5136,1611 5134,1610 5133,1607 5132,1603 L 5119,1566 C 5118,1562 5118,1559 5119,1557 5120,1555 5121,1554 5124,1553 5126,1552 5128,1552 5130,1553 5132,1555 5134,1557 5135,1561 L 5139,1571 5201,1551 5195,1534 5180,1539 C 5176,1540 5173,1540 5171,1539 5169,1538 5168,1537 5167,1534 5166,1532 5166,1530 5167,1528 5168,1526 5171,1524 5175,1523 L 5206,1513 5233,1595 5202,1605 C 5198,1606 5195,1606 5193,1606 5191,1605 5189,1603 5189,1601 5188,1598 5188,1596 5189,1594 5190,1592 5193,1590 5197,1589 L 5212,1584 5206,1567 Z"/>
         <path fill="rgb(255,255,255)" stroke="none" d="M 4226,1006 C 4226,1006 4276,1034 4329,1073 4381,1113 4431,1171 4435,1185 4438,1196 4429,1225 4403,1275 4376,1325 4332,1394 4354,1482 4381,1593 4468,1676 4545,1746 4622,1815 4693,1865 4693,1865 4781,1934 4912,1754 4817,1695 4817,1695 4746,1660 4678,1598 4610,1536 4554,1471 4545,1434 4542,1422 4546,1383 4573,1333 4600,1283 4636,1215 4611,1127 4583,1034 4500,973 4437,926 4375,879 4317,864 4317,864 4275,863 4167,976 4226,1006 L 4226,1006 Z"/>
         <path fill="none" stroke="rgb(0,0,0)" stroke-width="53" stroke-linejoin="miter" stroke-linecap="round" d="M 4226,1006 C 4226,1006 4276,1034 4329,1073 4381,1113 4431,1171 4435,1185 4438,1196 4429,1225 4403,1275 4376,1325 4332,1394 4354,1482 4381,1593 4468,1676 4545,1746 4622,1815 4693,1865 4693,1865 4781,1934 4912,1754 4817,1695 4817,1695 4746,1660 4678,1598 4610,1536 4554,1471 4545,1434 4542,1422 4546,1383 4573,1333 4600,1283 4636,1215 4611,1127 4583,1034 4500,973 4437,926 4375,879 4317,864 4317,864 4275,863 4167,976 4226,1006 Z"/>
         <path fill="rgb(255,255,255)" stroke="none" d="M 3558,990 C 3616,994 4068,1279 4052,1308 4052,1400 4016,1448 3977,1491 3872,1397 3690,1304 3461,1174 3482,1109 3497,1042 3558,990 L 3558,990 Z"/>
         <path fill="none" stroke="rgb(0,0,0)" stroke-width="53" stroke-linejoin="miter" d="M 3558,990 C 3616,994 4068,1279 4052,1308 4052,1400 4016,1448 3977,1491 3872,1397 3690,1304 3461,1174 3482,1109 3497,1042 3558,990 Z"/>
        </g>
       </g>
      </g>
      <g class="com.sun.star.drawing.CustomShape">
       <g id="id4">
        <rect class="BoundingBox" stroke="none" fill="none" x="441" y="335" width="2695" height="1999"/>
        <path fill="rgb(176,0,0)" stroke="none" d="M 956,2318 L 964,2319 1071,2315 1172,2303 1251,2293 1085,1813 1108,1804 1286,1724 1293,1721 1374,1676 1320,1521 1242,1571 1235,1574 966,1713 459,1894 498,1982 808,1911 956,2318 Z M 1696,2181 L 1793,2147 1802,2143 2006,2058 2151,1990 2331,1907 2473,1829 2476,1827 2394,1623 2391,1625 2252,1710 2080,1805 1970,1862 2029,1670 2107,1343 2160,1058 2101,911 1833,1154 1475,1421 1534,1586 1896,1344 1655,2063 1696,2181 Z M 2640,1718 L 2753,1631 2899,1501 2901,1499 2905,1495 2939,1458 2976,1414 3008,1369 3036,1322 3054,1286 3062,1271 3081,1218 3098,1165 3111,1109 3118,1051 3122,991 3120,931 3115,870 3103,807 3088,743 3067,678 3040,611 3009,551 2978,498 2946,453 2912,417 2879,388 2843,367 2808,355 2772,349 2734,351 2697,358 2660,373 2652,376 2621,394 2583,421 2544,455 2505,493 2477,525 2466,535 2243,769 2640,1718 Z M 2779,1322 L 2537,760 2544,753 2564,735 2566,732 2571,727 2581,718 2600,703 2617,691 2636,680 2653,672 2671,670 2690,670 2708,674 2726,684 2745,696 2764,714 2783,737 2801,766 2821,800 2840,840 2858,882 2871,922 2882,961 2888,998 2893,1033 2894,1065 2893,1097 2889,1127 2883,1156 2876,1181 2865,1206 2853,1232 2839,1253 2823,1276 2813,1286 2808,1292 2805,1296 2788,1314 2779,1322 Z"/>
        <path fill="none" stroke="rgb(0,0,0)" stroke-width="26" stroke-linejoin="miter" d="M 956,2318 L 964,2319 1071,2315 1172,2303 1251,2293 1085,1813 1108,1804 1286,1724 1293,1721 1374,1676 1320,1521 1242,1571 1235,1574 966,1713 459,1894 498,1982 808,1911 956,2318 Z"/>
        <path fill="none" stroke="rgb(0,0,0)" stroke-width="26" stroke-linejoin="miter" d="M 1696,2181 L 1793,2147 1802,2143 2006,2058 2151,1990 2331,1907 2473,1829 2476,1827 2394,1623 2391,1625 2252,1710 2080,1805 1970,1862 2029,1670 2107,1343 2160,1058 2101,911 1833,1154 1475,1421 1534,1586 1896,1344 1655,2063 1696,2181 Z"/>
        <path fill="none" stroke="rgb(0,0,0)" stroke-width="26" stroke-linejoin="miter" d="M 2640,1718 L 2753,1631 2899,1501 2901,1499 2905,1495 2939,1458 2976,1414 3008,1369 3036,1322 3054,1286 3062,1271 3081,1218 3098,1165 3111,1109 3118,1051 3122,991 3120,931 3115,870 3103,807 3088,743 3067,678 3040,611 3009,551 2978,498 2946,453 2912,417 2879,388 2843,367 2808,355 2772,349 2734,351 2697,358 2660,373 2652,376 2621,394 2583,421 2544,455 2505,493 2477,525 2466,535 2243,769 2640,1718 Z"/>
        <path fill="none" stroke="rgb(0,0,0)" stroke-width="26" stroke-linejoin="miter" d="M 2779,1322 L 2537,760 2544,753 2564,735 2566,732 2571,727 2581,718 2600,703 2617,691 2636,680 2653,672 2671,670 2690,670 2708,674 2726,684 2745,696 2764,714 2783,737 2801,766 2821,800 2840,840 2858,882 2871,922 2882,961 2888,998 2893,1033 2894,1065 2893,1097 2889,1127 2883,1156 2876,1181 2865,1206 2853,1232 2839,1253 2823,1276 2813,1286 2808,1292 2805,1296 2788,1314 2779,1322 Z"/>
       </g>
      </g>
     </g>
    </g>
   </g>
  </g>
 </g>
</svg>