<?xml version="1.0" encoding="UTF-8"?>
<!DOCTYPE svg PUBLIC "-//W3C//DTD SVG 1.1//EN" "http://www.w3.org/Graphics/SVG/1.1/DTD/svg11.dtd">
<svg version="1.2" width="31.83mm" height="24.87mm" viewBox="0 0 3183 2487" preserveAspectRatio="xMidYMid" fill-rule="evenodd" stroke-width="28.222" stroke-linejoin="round" xmlns="http://www.w3.org/2000/svg" xmlns:ooo="http://xml.openoffice.org/svg/export" xmlns:xlink="http://www.w3.org/1999/xlink" xmlns:presentation="http://sun.com/xmlns/staroffice/presentation" xmlns:smil="http://www.w3.org/2001/SMIL20/" xmlns:anim="urn:oasis:names:tc:opendocument:xmlns:animation:1.0" xml:space="preserve">
 <defs class="ClipPathGroup">
  <clipPath id="presentation_clip_path" clipPathUnits="userSpaceOnUse">
   <rect x="0" y="0" width="3183" height="2487"/>
  </clipPath>
  <clipPath id="presentation_clip_path_shrink" clipPathUnits="userSpaceOnUse">
   <rect x="3" y="2" width="3177" height="2483"/>
  </clipPath>
 </defs>
 <defs class="TextShapeIndex">
  <g ooo:slide="id1" ooo:id-list="id3"/>
 </defs>
 <defs class="EmbeddedBulletChars">
  <g id="bullet-char-template-57356" transform="scale(0.00048828125,-0.00048828125)">
   <path d="M 580,1141 L 1163,571 580,0 -4,571 580,1141 Z"/>
  </g>
  <g id="bullet-char-template-57354" transform="scale(0.00048828125,-0.00048828125)">
   <path d="M 8,1128 L 1137,1128 1137,0 8,0 8,1128 Z"/>
  </g>
  <g id="bullet-char-template-10146" transform="scale(0.00048828125,-0.00048828125)">
   <path d="M 174,0 L 602,739 174,1481 1456,739 174,0 Z M 1358,739 L 309,1346 659,739 1358,739 Z"/>
  </g>
  <g id="bullet-char-template-10132" transform="scale(0.00048828125,-0.00048828125)">
   <path d="M 2015,739 L 1276,0 717,0 1260,543 174,543 174,936 1260,936 717,1481 1274,1481 2015,739 Z"/>
  </g>
  <g id="bullet-char-template-10007" transform="scale(0.00048828125,-0.00048828125)">
   <path d="M 0,-2 C -7,14 -16,27 -25,37 L 356,567 C 262,823 215,952 215,954 215,979 228,992 255,992 264,992 276,990 289,987 310,991 331,999 354,1012 L 381,999 492,748 772,1049 836,1024 860,1049 C 881,1039 901,1025 922,1006 886,937 835,863 770,784 769,783 710,716 594,584 L 774,223 C 774,196 753,168 711,139 L 727,119 C 717,90 699,76 672,76 641,76 570,178 457,381 L 164,-76 C 142,-110 111,-127 72,-127 30,-127 9,-110 8,-76 1,-67 -2,-52 -2,-32 -2,-23 -1,-13 0,-2 Z"/>
  </g>
  <g id="bullet-char-template-10004" transform="scale(0.00048828125,-0.00048828125)">
   <path d="M 285,-33 C 182,-33 111,30 74,156 52,228 41,333 41,471 41,549 55,616 82,672 116,743 169,778 240,778 293,778 328,747 346,684 L 369,508 C 377,444 397,411 428,410 L 1163,1116 C 1174,1127 1196,1133 1229,1133 1271,1133 1292,1118 1292,1087 L 1292,965 C 1292,929 1282,901 1262,881 L 442,47 C 390,-6 338,-33 285,-33 Z"/>
  </g>
  <g id="bullet-char-template-9679" transform="scale(0.00048828125,-0.00048828125)">
   <path d="M 813,0 C 632,0 489,54 383,161 276,268 223,411 223,592 223,773 276,916 383,1023 489,1130 632,1184 813,1184 992,1184 1136,1130 1245,1023 1353,916 1407,772 1407,592 1407,412 1353,268 1245,161 1136,54 992,0 813,0 Z"/>
  </g>
  <g id="bullet-char-template-8226" transform="scale(0.00048828125,-0.00048828125)">
   <path d="M 346,457 C 273,457 209,483 155,535 101,586 74,649 74,723 74,796 101,859 155,911 209,963 273,989 346,989 419,989 480,963 531,910 582,859 608,796 608,723 608,648 583,586 532,535 482,483 420,457 346,457 Z"/>
  </g>
  <g id="bullet-char-template-8211" transform="scale(0.00048828125,-0.00048828125)">
   <path d="M -4,459 L 1135,459 1135,606 -4,606 -4,459 Z"/>
  </g>
  <g id="bullet-char-template-61548" transform="scale(0.00048828125,-0.00048828125)">
   <path d="M 173,740 C 173,903 231,1043 346,1159 462,1274 601,1332 765,1332 928,1332 1067,1274 1183,1159 1299,1043 1357,903 1357,740 1357,577 1299,437 1183,322 1067,206 928,148 765,148 601,148 462,206 346,322 231,437 173,577 173,740 Z"/>
  </g>
 </defs>
 <g>
  <g id="id2" class="Master_Slide">
   <g id="bg-id2" class="Background"/>
   <g id="bo-id2" class="BackgroundObjects"/>
  </g>
 </g>
 <g class="SlideGroup">
  <g>
   <g id="container-id1">
    <g id="id1" class="Slide" clip-path="url(#presentation_clip_path)">
     <g class="Page">
      <g class="Graphic">
       <g id="id3">
        <rect class="BoundingBox" stroke="none" fill="none" x="0" y="56" width="3157" height="2372"/>
        <path fill="rgb(224,135,9)" stroke="none" d="M 2868,2002 C 2807,1987 2726,1990 2726,1951 2731,1924 2755,1917 2792,1917 2849,1917 2854,1949 2854,1968 L 2949,1968 C 2944,1894 2883,1845 2788,1845 2689,1845 2632,1898 2632,1966 2632,2004 2651,2041 2684,2058 2708,2068 2741,2077 2783,2083 2821,2090 2859,2092 2863,2122 2863,2141 2840,2166 2797,2166 2736,2164 2722,2130 2722,2105 L 2622,2105 C 2627,2181 2689,2234 2792,2234 2887,2234 2963,2198 2963,2105 2963,2053 2925,2017 2868,2002 L 2868,2002 Z"/>
        <path fill="rgb(224,135,9)" stroke="none" d="M 1483,1717 L 1307,1416 981,1606 1043,1717 1483,1717 1483,1717 Z"/>
        <path fill="rgb(224,135,9)" stroke="none" d="M 1667,2223 L 1620,2223 1620,1844 1714,1844 1714,2223 1667,2223 1667,2223 Z"/>
        <path fill="rgb(224,135,9)" stroke="none" d="M 1047,1879 C 1014,1856 976,1845 934,1845 830,1845 740,1931 740,2039 740,2148 830,2235 934,2235 976,2235 1019,2224 1047,2203 L 1047,2226 1142,2226 1142,1850 1047,1850 1047,1879 1047,1879 Z M 939,2148 C 882,2148 830,2099 830,2039 830,1982 882,1931 939,1931 1000,1931 1047,1982 1047,2039 1047,2099 1000,2148 939,2148 L 939,2148 Z"/>
        <path fill="rgb(224,135,9)" stroke="none" d="M 2637,1717 L 2069,733 1743,924 2197,1717 2637,1717 2637,1717 Z"/>
        <path fill="rgb(224,135,9)" stroke="none" d="M 1483,1879 C 1449,1856 1412,1845 1369,1845 1260,1845 1175,1931 1175,2039 1175,2148 1260,2235 1369,2235 1412,2235 1449,2224 1483,2203 L 1483,2226 1577,2226 1577,1720 1483,1720 1483,1879 1483,1879 Z M 1374,2148 C 1312,2148 1265,2099 1265,2039 1265,1982 1312,1931 1374,1931 1430,1931 1483,1982 1483,2039 1483,2099 1430,2148 1374,2148 L 1374,2148 Z"/>
        <path fill="rgb(224,135,9)" stroke="none" d="M 1695,1080 L 1364,1267 1620,1717 1620,1810 1714,1810 1714,1717 2060,1717 1695,1080 1695,1080 Z"/>
        <path fill="rgb(224,135,9)" stroke="none" d="M 2902,1813 C 2930,1813 2949,1792 2949,1766 2949,1741 2930,1720 2902,1720 2878,1720 2854,1741 2854,1766 2854,1792 2878,1813 2902,1813 L 2902,1813 Z M 2902,1726 C 2925,1726 2939,1745 2939,1766 2939,1787 2925,1807 2902,1807 2878,1807 2864,1787 2864,1766 2864,1745 2878,1726 2902,1726 L 2902,1726 Z"/>
        <path fill="rgb(224,135,9)" stroke="none" d="M 2893,1771 L 2902,1771 2911,1792 2921,1792 2911,1771 C 2916,1768 2921,1764 2921,1756 2921,1747 2911,1741 2907,1741 L 2885,1741 2885,1792 2892,1792 2893,1771 2893,1771 Z M 2893,1747 L 2902,1747 C 2911,1747 2911,1751 2911,1756 2911,1762 2911,1764 2902,1764 L 2893,1764 2893,1747 2893,1747 Z"/>
        <path fill="rgb(224,135,9)" stroke="none" d="M 2495,1879 C 2461,1856 2424,1845 2381,1845 2272,1845 2187,1931 2187,2039 2187,2148 2272,2235 2381,2235 2424,2235 2461,2224 2495,2203 L 2495,2226 2584,2226 2584,1850 2495,1850 2495,1879 2495,1879 Z M 2386,2148 C 2324,2148 2277,2099 2277,2039 2277,1982 2324,1931 2386,1931 2443,1931 2495,1982 2495,2039 2495,2099 2443,2148 2386,2148 L 2386,2148 Z"/>
        <path fill="rgb(224,135,9)" stroke="none" d="M 2060,1879 C 2031,1856 1993,1845 1951,1845 1842,1845 1752,1931 1752,2039 1752,2148 1842,2235 1951,2235 1993,2235 2031,2224 2060,2203 L 2060,2226 2154,2226 2154,1720 2060,1720 2060,1879 2060,1879 Z M 1951,2148 C 1894,2148 1842,2099 1842,2039 1842,1982 1894,1931 1951,1931 2012,1931 2060,1982 2060,2039 2060,2099 2012,2148 1951,2148 L 1951,2148 Z"/>
        <path fill="rgb(224,135,9)" stroke="none" d="M 402,1169 C 331,1166 273,1147 228,1111 219,1104 199,1084 191,1075 173,1052 161,1029 152,1004 126,927 140,826 190,715 233,620 299,527 415,396 432,377 483,321 483,321 484,321 481,326 477,332 448,382 422,442 408,493 385,576 388,647 415,701 435,739 468,772 504,790 569,822 664,824 780,798 788,796 1183,691 1657,565 2132,439 2520,336 2520,336 2520,336 1418,807 845,1052 754,1091 730,1101 688,1116 579,1154 481,1172 402,1169 L 402,1169 Z"/>
       </g>
      </g>
     </g>
    </g>
   </g>
  </g>
 </g>
</svg>