<?xml version="1.0" encoding="UTF-8"?>
<!DOCTYPE svg PUBLIC "-//W3C//DTD SVG 1.1//EN" "http://www.w3.org/Graphics/SVG/1.1/DTD/svg11.dtd">
<svg version="1.2" width="31.57mm" height="24.61mm" viewBox="0 0 3157 2461" preserveAspectRatio="xMidYMid" fill-rule="evenodd" stroke-width="28.222" stroke-linejoin="round" xmlns="http://www.w3.org/2000/svg" xmlns:ooo="http://xml.openoffice.org/svg/export" xmlns:xlink="http://www.w3.org/1999/xlink" xmlns:presentation="http://sun.com/xmlns/staroffice/presentation" xmlns:smil="http://www.w3.org/2001/SMIL20/" xmlns:anim="urn:oasis:names:tc:opendocument:xmlns:animation:1.0" xml:space="preserve">
 <defs class="ClipPathGroup">
  <clipPath id="presentation_clip_path" clipPathUnits="userSpaceOnUse">
   <rect x="0" y="0" width="3157" height="2461"/>
  </clipPath>
  <clipPath id="presentation_clip_path_shrink" clipPathUnits="userSpaceOnUse">
   <rect x="3" y="2" width="3151" height="2457"/>
  </clipPath>
 </defs>
 <defs class="TextShapeIndex">
  <g ooo:slide="id1" ooo:id-list="id3 id4 id5 id6"/>
 </defs>
 <defs class="EmbeddedBulletChars">
  <g id="bullet-char-template-57356" transform="scale(0.00048828125,-0.00048828125)">
   <path d="M 580,1141 L 1163,571 580,0 -4,571 580,1141 Z"/>
  </g>
  <g id="bullet-char-template-57354" transform="scale(0.00048828125,-0.00048828125)">
   <path d="M 8,1128 L 1137,1128 1137,0 8,0 8,1128 Z"/>
  </g>
  <g id="bullet-char-template-10146" transform="scale(0.00048828125,-0.00048828125)">
   <path d="M 174,0 L 602,739 174,1481 1456,739 174,0 Z M 1358,739 L 309,1346 659,739 1358,739 Z"/>
  </g>
  <g id="bullet-char-template-10132" transform="scale(0.00048828125,-0.00048828125)">
   <path d="M 2015,739 L 1276,0 717,0 1260,543 174,543 174,936 1260,936 717,1481 1274,1481 2015,739 Z"/>
  </g>
  <g id="bullet-char-template-10007" transform="scale(0.00048828125,-0.00048828125)">
   <path d="M 0,-2 C -7,14 -16,27 -25,37 L 356,567 C 262,823 215,952 215,954 215,979 228,992 255,992 264,992 276,990 289,987 310,991 331,999 354,1012 L 381,999 492,748 772,1049 836,1024 860,1049 C 881,1039 901,1025 922,1006 886,937 835,863 770,784 769,783 710,716 594,584 L 774,223 C 774,196 753,168 711,139 L 727,119 C 717,90 699,76 672,76 641,76 570,178 457,381 L 164,-76 C 142,-110 111,-127 72,-127 30,-127 9,-110 8,-76 1,-67 -2,-52 -2,-32 -2,-23 -1,-13 0,-2 Z"/>
  </g>
  <g id="bullet-char-template-10004" transform="scale(0.00048828125,-0.00048828125)">
   <path d="M 285,-33 C 182,-33 111,30 74,156 52,228 41,333 41,471 41,549 55,616 82,672 116,743 169,778 240,778 293,778 328,747 346,684 L 369,508 C 377,444 397,411 428,410 L 1163,1116 C 1174,1127 1196,1133 1229,1133 1271,1133 1292,1118 1292,1087 L 1292,965 C 1292,929 1282,901 1262,881 L 442,47 C 390,-6 338,-33 285,-33 Z"/>
  </g>
  <g id="bullet-char-template-9679" transform="scale(0.00048828125,-0.00048828125)">
   <path d="M 813,0 C 632,0 489,54 383,161 276,268 223,411 223,592 223,773 276,916 383,1023 489,1130 632,1184 813,1184 992,1184 1136,1130 1245,1023 1353,916 1407,772 1407,592 1407,412 1353,268 1245,161 1136,54 992,0 813,0 Z"/>
  </g>
  <g id="bullet-char-template-8226" transform="scale(0.00048828125,-0.00048828125)">
   <path d="M 346,457 C 273,457 209,483 155,535 101,586 74,649 74,723 74,796 101,859 155,911 209,963 273,989 346,989 419,989 480,963 531,910 582,859 608,796 608,723 608,648 583,586 532,535 482,483 420,457 346,457 Z"/>
  </g>
  <g id="bullet-char-template-8211" transform="scale(0.00048828125,-0.00048828125)">
   <path d="M -4,459 L 1135,459 1135,606 -4,606 -4,459 Z"/>
  </g>
  <g id="bullet-char-template-61548" transform="scale(0.00048828125,-0.00048828125)">
   <path d="M 173,740 C 173,903 231,1043 346,1159 462,1274 601,1332 765,1332 928,1332 1067,1274 1183,1159 1299,1043 1357,903 1357,740 1357,577 1299,437 1183,322 1067,206 928,148 765,148 601,148 462,206 346,322 231,437 173,577 173,740 Z"/>
  </g>
 </defs>
 <g>
  <g id="id2" class="Master_Slide">
   <g id="bg-id2" class="Background"/>
   <g id="bo-id2" class="BackgroundObjects"/>
  </g>
 </g>
 <g class="SlideGroup">
  <g>
   <g id="container-id1">
    <g id="id1" class="Slide" clip-path="url(#presentation_clip_path)">
     <g class="Page">
      <g class="com.sun.star.drawing.ClosedBezierShape">
       <g id="id3">
        <rect class="BoundingBox" stroke="none" fill="none" x="0" y="0" width="3156" height="1920"/>
        <path fill="rgb(224,135,9)" stroke="none" d="M 3127,1244 L 3130,1244 1095,8 C 1095,8 1095,8 1095,7 1087,3 1076,0 1067,0 1057,0 1048,3 1040,7 1040,8 1040,8 1040,8 L 31,546 C 30,547 29,547 28,548 20,553 12,560 8,568 3,577 0,586 0,596 0,606 3,615 8,624 12,632 18,638 26,643 L 2064,1909 C 2065,1910 2065,1910 2066,1910 2074,1915 2084,1918 2093,1918 2103,1918 2112,1915 2121,1911 L 3127,1340 C 3135,1335 3142,1328 3147,1320 3152,1311 3154,1302 3154,1292 3154,1283 3152,1272 3147,1264 3147,1264 3147,1264 3147,1263 3142,1255 3135,1249 3127,1244 Z M 2097,1800 L 168,599 1065,119 2990,1290 2097,1800 Z"/>
       </g>
      </g>
      <g class="com.sun.star.drawing.ClosedBezierShape">
       <g id="id4">
        <rect class="BoundingBox" stroke="none" fill="none" x="0" y="808" width="3157" height="1382"/>
        <path fill="rgb(224,135,9)" stroke="none" d="M 3148,1534 C 3143,1525 3136,1519 3127,1514 3118,1510 3109,1506 3099,1506 3090,1506 3080,1509 3072,1514 L 3075,1514 2097,2069 86,818 C 85,818 84,817 83,817 75,812 65,809 55,809 45,809 35,812 27,817 18,822 12,829 7,837 4,843 1,849 0,855 L 0,875 C 1,881 4,887 7,893 11,901 18,908 26,913 L 2064,2180 C 2065,2180 2065,2180 2066,2180 2074,2185 2084,2188 2093,2188 2103,2188 2112,2185 2121,2181 L 3127,1610 3127,1610 C 3136,1605 3143,1599 3148,1590 3153,1582 3155,1572 3155,1562 3155,1552 3152,1543 3148,1534 Z"/>
       </g>
      </g>
      <g class="com.sun.star.drawing.ClosedBezierShape">
       <g id="id5">
        <rect class="BoundingBox" stroke="none" fill="none" x="0" y="1078" width="3150" height="1383"/>
        <path fill="rgb(224,135,9)" stroke="none" d="M 3136,1802 C 3131,1797 3126,1792 3120,1789 3112,1784 3102,1781 3092,1781 3086,1781 3081,1782 3075,1784 L 2094,2339 86,1089 C 85,1088 84,1087 83,1087 75,1082 65,1079 55,1079 45,1079 35,1082 27,1087 18,1092 12,1099 7,1107 4,1112 1,1118 0,1125 L 0,1145 C 1,1151 4,1157 7,1163 11,1171 18,1178 26,1183 L 2064,2451 C 2065,2451 2065,2451 2066,2452 2074,2456 2084,2459 2093,2459 2103,2459 2112,2457 2121,2452 L 3127,1880 C 3132,1876 3137,1871 3141,1865 3145,1856 3148,1847 3148,1837 3148,1827 3145,1817 3141,1809 3139,1807 3138,1804 3136,1802 Z"/>
       </g>
      </g>
      <g class="com.sun.star.drawing.ClosedBezierShape">
       <g id="id6">
        <rect class="BoundingBox" stroke="none" fill="none" x="1249" y="639" width="661" height="607"/>
        <path fill="rgb(224,135,9)" stroke="none" d="M 1896,661 C 1892,656 1887,651 1881,648 1872,643 1863,640 1853,640 1843,640 1834,643 1825,648 1823,649 1820,651 1818,652 1817,654 1815,655 1814,656 L 1755,712 C 1742,700 1727,690 1712,681 1706,677 1699,674 1692,671 1669,660 1644,654 1618,654 1611,654 1604,654 1598,655 1579,657 1562,664 1545,673 1537,678 1529,684 1522,690 1511,699 1502,710 1495,722 1487,735 1482,749 1480,764 1479,772 1478,781 1478,789 1478,811 1482,833 1489,854 1498,878 1507,901 1518,924 L 1407,1023 C 1406,1020 1405,1016 1404,1012 1403,1004 1402,996 1402,988 1402,969 1406,950 1412,932 1417,920 1420,908 1420,895 1420,887 1418,879 1414,872 1411,869 1409,865 1406,862 1401,857 1396,853 1390,849 1382,844 1372,842 1362,842 1352,842 1342,844 1334,849 1330,851 1327,853 1324,856 1316,864 1309,873 1304,882 1296,895 1292,908 1289,922 1288,932 1287,943 1287,953 1287,976 1291,999 1299,1021 1305,1038 1313,1054 1321,1070 1325,1076 1329,1082 1333,1088 L 1269,1144 C 1265,1148 1261,1152 1258,1157 1253,1166 1250,1175 1250,1185 1250,1194 1253,1205 1258,1213 1263,1221 1269,1228 1278,1232 1286,1237 1296,1240 1306,1240 L 1306,1240 1305,1241 1306,1241 C 1316,1241 1325,1239 1333,1234 1337,1232 1340,1230 1342,1229 L 1405,1173 C 1424,1190 1444,1206 1466,1218 1469,1220 1472,1222 1474,1223 1499,1236 1528,1244 1556,1244 1585,1244 1613,1236 1639,1222 1650,1216 1661,1207 1671,1198 1681,1190 1689,1179 1695,1168 1701,1158 1706,1147 1708,1136 1710,1124 1712,1113 1712,1101 1712,1085 1710,1069 1705,1054 1695,1017 1681,981 1662,948 L 1662,944 1754,862 C 1756,869 1756,876 1756,884 1756,891 1756,900 1754,907 1751,923 1750,939 1750,955 1750,956 1750,957 1750,958 1750,967 1754,976 1757,983 1760,987 1762,991 1765,994 1770,1001 1777,1006 1784,1011 1791,1015 1799,1018 1808,1019 1809,1019 1810,1019 1811,1019 1821,1019 1830,1016 1839,1011 1842,1009 1845,1007 1848,1004 1854,999 1859,992 1863,986 1867,978 1870,971 1872,963 1874,952 1875,942 1875,932 1875,921 1874,911 1872,901 1867,875 1859,849 1846,826 1844,823 1842,819 1841,816 1836,809 1832,802 1827,795 L 1887,739 C 1893,735 1897,729 1901,723 1906,715 1908,705 1908,696 1908,686 1906,676 1901,668 1900,665 1898,663 1896,661 Z M 1551,1117 C 1543,1121 1533,1124 1523,1124 1517,1124 1512,1123 1506,1121 1497,1119 1489,1116 1481,1111 1479,1110 1477,1109 1475,1107 L 1569,1026 C 1573,1036 1576,1047 1578,1057 1578,1060 1578,1064 1578,1067 1578,1077 1576,1087 1571,1096 1567,1103 1562,1108 1557,1113 1555,1114 1553,1115 1551,1117 Z M 1610,841 C 1608,832 1606,823 1605,815 1605,812 1605,810 1605,807 1605,799 1607,792 1611,785 1613,781 1616,777 1620,774 1622,772 1624,771 1627,769 1634,765 1642,763 1651,763 1656,763 1662,764 1667,766 1673,768 1678,770 1683,773 L 1610,841 Z"/>
       </g>
      </g>
     </g>
    </g>
   </g>
  </g>
 </g>
</svg>